<?xml version="1.0" encoding="utf-8"?>
<!-- Generator: Adobe Illustrator 21.0.0, SVG Export Plug-In . SVG Version: 6.00 Build 0)  -->
<svg version="1.1" id="Capa_1" xmlns="http://www.w3.org/2000/svg" xmlns:xlink="http://www.w3.org/1999/xlink" x="0px" y="0px"
	 viewBox="0 0 57.1 61.7" style="enable-background:new 0 0 57.1 61.7;" xml:space="preserve">
<style type="text/css">
	.st0{fill:url(#SVGID_1_);}
	.st1{fill:url(#SVGID_2_);}
	.st2{fill:#D8D9DD;}
	.st3{fill-rule:evenodd;clip-rule:evenodd;fill:#D8D9DD;}
	.st4{clip-path:url(#SVGID_4_);}
	.st5{fill:url(#SVGID_5_);}
	.st6{clip-path:url(#SVGID_7_);}
	.st7{fill:url(#SVGID_8_);}
	.st8{fill:none;stroke:#D8D9DD;stroke-miterlimit:10;}
	.st9{clip-path:url(#SVGID_10_);}
	.st10{fill:url(#SVGID_11_);}
	.st11{clip-path:url(#SVGID_13_);}
	.st12{fill:url(#SVGID_14_);}
	.st13{clip-path:url(#SVGID_16_);}
</style>
<g>
	<polygon class="st2" points="53.1,51.7 57.1,51.7 57.1,15.6 39.8,15.6 39.8,35.7 39.8,37.4 38,37.4 19,37.4 19,51.7 43.9,51.7 
		43.9,61.7 	"/>
	<path class="st2" d="M0,35.7h3.9l9.3,10.2V35.7H19h19V15.6V0H0V35.7z M31.6,14.9c0.8,0,1.5,0.4,2.1,0.8c0.7,0.7,1.1,1.5,1.1,2.5
		c0,1.8-1.4,3.2-3.2,3.2c-1.8,0-3.2-1.5-3.2-3.3c0-1,0.4-1.8,1.1-2.5C30.1,15.3,30.8,14.9,31.6,14.9z M23.2,14.9
		c0.8,0,1.5,0.4,2.1,0.8c0.7,0.7,1.1,1.5,1.1,2.5c0,1.8-1.4,3.2-3.2,3.2c-1.8,0-3.2-1.5-3.2-3.3c0-1,0.4-1.8,1.1-2.5
		C21.7,15.3,22.4,14.9,23.2,14.9z M14.8,14.9c1.8,0,3.2,1.4,3.2,3.2c0,1.8-1.4,3.2-3.2,3.2c-1.8,0-3.2-1.4-3.2-3.2
		C11.5,16.4,13,14.9,14.8,14.9z M6.3,14.9c1.8,0,3.2,1.4,3.2,3.2c0,1.8-1.4,3.2-3.2,3.2c-1.8,0-3.2-1.4-3.2-3.2
		C3.1,16.4,4.5,14.9,6.3,14.9z"/>
</g>
</svg>
