<?xml version="1.0" encoding="utf-8"?>
<!-- Generator: Adobe Illustrator 21.0.0, SVG Export Plug-In . SVG Version: 6.00 Build 0)  -->
<svg version="1.1" id="Camada_1" xmlns="http://www.w3.org/2000/svg" xmlns:xlink="http://www.w3.org/1999/xlink" x="0px" y="0px"
	 viewBox="0 0 15.3 17.4" style="enable-background:new 0 0 15.3 17.4;" xml:space="preserve">
<style type="text/css">
	.st0{fill:#94C123;}
	.st1{fill:#FFFFFF;}
	.st2{fill-rule:evenodd;clip-rule:evenodd;fill:none;stroke:#FFFFFF;stroke-width:8;stroke-miterlimit:10;}
	.st3{fill-rule:evenodd;clip-rule:evenodd;fill:#FFFFFF;}
	.st4{fill:#F9B122;}
	.st5{fill:#009062;}
	.st6{clip-path:url(#XMLID_71_);fill:none;stroke:#F9B122;stroke-width:2;stroke-miterlimit:10;}
</style>
<g>
	<path class="st1" d="M6.1,9.8c-0.9,0-1.7,0-2.2,0c0.6-1,1.1-1.9,1.5-2.7l0.8-1.4V2.1h-1C5,2.1,4.8,1.8,4.8,1.5C4.8,1.2,5,1,5.3,1
		H10c0.3,0,0.6,0.2,0.6,0.6c0,0.3-0.3,0.5-0.6,0.5H9v3.6l0.4,0.6l0.7-0.7L10,5.4V3c0.8,0,1.5-0.7,1.5-1.5C11.5,0.7,10.8,0,10,0H5.3
		C4.5,0,3.8,0.7,3.8,1.5C3.8,2.3,4.5,3,5.3,3v2.4L4.6,6.7c-0.9,1.5-2.3,4-3.2,5.6l-1,1.7C0.1,14.4,0,15,0,15.4c0,0.2,0,0.5,0.1,0.7
		L6.1,9.8z"/>
	<path class="st1" d="M13.9,12.2c-0.8-1.3-1.9-3.3-2.8-4.8l-0.7,0.7c0.3,0.5,0.6,1.1,0.9,1.7c-0.6,0-1.5,0-2.5,0l-3.3,3.5
		C5.8,13.4,6,13.7,6,14c0,0.5-0.4,0.8-0.8,0.8c-0.3,0-0.6-0.2-0.7-0.4l-2.8,2.9c0.2,0.1,0.4,0.1,0.7,0.1h2.1c1.7,0,4.6,0,6.4,0h2
		c0.7,0,1.3-0.2,1.8-0.5c0.2-0.2,0.4-0.4,0.5-0.6c0.1-0.3,0.2-0.5,0.2-0.8c0-0.5-0.2-1-0.5-1.5L13.9,12.2z M7.4,13.9
		c-0.5,0-0.8-0.3-0.8-0.8c0-0.4,0.3-0.8,0.8-0.8c0.4,0,0.8,0.3,0.8,0.8C8.2,13.5,7.8,13.9,7.4,13.9z"/>
</g>
</svg>
