<?xml version="1.0" encoding="utf-8"?>
<!-- Generator: Adobe Illustrator 21.0.0, SVG Export Plug-In . SVG Version: 6.00 Build 0)  -->
<svg version="1.1" id="Capa_1" xmlns="http://www.w3.org/2000/svg" xmlns:xlink="http://www.w3.org/1999/xlink" x="0px" y="0px"
	 viewBox="0 0 46.5 46.5" style="enable-background:new 0 0 46.5 46.5;" xml:space="preserve">
<style type="text/css">
	.st0{fill:url(#SVGID_1_);}
	.st1{fill:url(#SVGID_2_);}
	.st2{fill:#D8D9DD;}
	.st3{fill-rule:evenodd;clip-rule:evenodd;fill:#D8D9DD;}
	.st4{clip-path:url(#SVGID_4_);}
	.st5{fill:url(#SVGID_5_);}
	.st6{clip-path:url(#SVGID_7_);}
	.st7{fill:url(#SVGID_8_);}
	.st8{fill:none;stroke:#D8D9DD;stroke-miterlimit:10;}
	.st9{clip-path:url(#SVGID_10_);}
	.st10{fill:url(#SVGID_11_);}
	.st11{clip-path:url(#SVGID_13_);}
	.st12{fill:url(#SVGID_14_);}
	.st13{clip-path:url(#SVGID_16_);}
</style>
<g>
	<path class="st2" d="M0,46.5h46.5V0H0V46.5z M15.3,23.3c-1.3-0.6-2.3-1.6-3.2-2.9c-0.9-1.3-1.4-3-1.4-4.9c0-2.6,0.9-4.9,2.7-6.6
		C15.3,7,18,6,21.7,5.8V3.7h3.4v2.2c3.4,0.2,5.9,1,7.6,2.4c1.8,1.4,2.9,3.2,3.4,5.6l-8.3,1.3c-0.4-1.1-0.8-1.8-1.1-2.2
		c-0.3-0.4-0.9-0.8-1.7-1.2v6.5c4.4,1.2,7.5,2.5,9,3.8c2,1.8,3,4.1,3,6.9c0,1.6-0.4,3.1-1.1,4.5c-0.7,1.4-1.6,2.5-2.8,3.4
		c-1.1,0.9-2.3,1.6-3.6,2c-1.3,0.4-2.8,0.7-4.6,0.7v4.2h-3.4v-4.2c-2.1-0.2-3.9-0.5-5.3-1.1c-1.4-0.5-2.5-1.2-3.5-2.1
		c-1-0.9-1.7-1.9-2.3-2.9c-0.5-1-0.9-2.3-1.2-3.8l9-1c0.3,1.5,0.6,2.5,1,3.2c0.5,0.7,1.1,1.2,2.2,1.7v-7.9
		C18.8,24.6,16.6,23.9,15.3,23.3z"/>
	<path class="st2" d="M21.7,11.6c-0.8,0.3-1.6,0.7-1.9,1.2c-0.4,0.5-0.5,1-0.5,1.6c0,0.7,0.1,1.2,0.5,1.7c0.4,0.5,1.2,0.9,1.9,1.2
		V11.6z"/>
	<path class="st2" d="M27.8,32.1c0.6-0.6,0.9-1.4,0.9-2.2c0-0.7-0.2-1.3-0.7-1.9c-0.5-0.6-1.6-1.1-2.9-1.6v7.2
		C26.4,33.2,27.2,32.8,27.8,32.1z"/>
</g>
</svg>
