<?xml version="1.0" encoding="utf-8"?>
<!-- Generator: Adobe Illustrator 21.0.0, SVG Export Plug-In . SVG Version: 6.00 Build 0)  -->
<svg version="1.1" id="Camada_1" xmlns="http://www.w3.org/2000/svg" xmlns:xlink="http://www.w3.org/1999/xlink" x="0px" y="0px"
	 viewBox="0 0 17.4 17.4" style="enable-background:new 0 0 17.4 17.4;" xml:space="preserve">
<style type="text/css">
	.st0{fill:#94C123;}
	.st1{fill:#FFFFFF;}
	.st2{fill-rule:evenodd;clip-rule:evenodd;fill:none;stroke:#FFFFFF;stroke-width:8;stroke-miterlimit:10;}
	.st3{fill-rule:evenodd;clip-rule:evenodd;fill:#FFFFFF;}
	.st4{fill:#F9B122;}
	.st5{fill:#009062;}
	.st6{clip-path:url(#XMLID_71_);fill:none;stroke:#F9B122;stroke-width:2;stroke-miterlimit:10;}
</style>
<g id="XMLID_79_">
	<path id="XMLID_81_" class="st1" d="M8.7,0C3.9,0,0,3.9,0,8.7c0,4.8,3.9,8.7,8.7,8.7s8.7-3.9,8.7-8.7C17.4,3.9,13.5,0,8.7,0z
		 M9.3,16v-0.6c0-0.4-0.3-0.7-0.7-0.7S8,15.1,8,15.5V16c-3.6-0.3-6.4-3.2-6.7-6.7h0.6c0.4,0,0.7-0.3,0.7-0.7C2.6,8.3,2.3,8,1.9,8
		H1.3C1.7,4.5,4.5,1.7,8,1.3v0.5c0,0.4,0.3,0.7,0.7,0.7s0.7-0.3,0.7-0.7V1.3C12.9,1.7,15.7,4.5,16,8h-0.6c-0.4,0-0.7,0.3-0.7,0.7
		c0,0.4,0.3,0.7,0.7,0.7H16C15.7,12.9,12.9,15.7,9.3,16z"/>
	<path id="XMLID_80_" class="st1" d="M12.6,4.5L8.7,8.5c0,0,0,0,0,0c0,0-0.1,0-0.1,0L5.3,6.1C5.1,5.9,4.8,6,4.6,6.2
		C4.4,6.4,4.5,6.7,4.7,6.9L8,9.3C8,9.7,8.3,10,8.7,10c0.4,0,0.7-0.3,0.7-0.7c0,0,0,0,0-0.1l3.9-4.1c0.2-0.2,0.2-0.5,0-0.7
		C13.1,4.3,12.8,4.3,12.6,4.5z"/>
</g>
</svg>
