<?xml version="1.0" encoding="utf-8"?>
<!-- Generator: Adobe Illustrator 21.0.0, SVG Export Plug-In . SVG Version: 6.00 Build 0)  -->
<svg version="1.1" xmlns="http://www.w3.org/2000/svg" xmlns:xlink="http://www.w3.org/1999/xlink" x="0px" y="0px"
	 viewBox="0 0 297 249" style="enable-background:new 0 0 297 249;" xml:space="preserve">
<style type="text/css">
	.st0{fill:#CD541F;}
	.st1{fill:#FFFFFF;}
	.st2{fill:#38929A;}
	.st3{fill:#51A888;}
	.st4{fill:#E09B26;}
	.st5{fill:#733999;}
	.st6{fill-rule:evenodd;clip-rule:evenodd;fill:#FFFFFF;}
</style>
<g id="Layer_2">
</g>
<g id="Layer_1">
	<path class="st1" d="M279.4,0H17.6C7.9,0,0,7.9,0,17.6v161.9c0,9.7,7.9,17.6,17.6,17.6h88c-0.1,0.3-0.1,0.6-0.1,0.9v29.7H25
		c-4.7,0-8.5,3.8-8.5,8.5v4.4c0,4.7,3.8,8.5,8.5,8.5h245.8c4.7,0,8.5-3.8,8.5-8.5v-4.4c0-4.7-3.8-8.5-8.5-8.5h-80.4v-29.7
		c0-0.3-0.1-0.6-0.1-0.9h89.1c9.7,0,17.6-7.9,17.6-17.6V17.6C297,7.9,289.1,0,279.4,0z M281.7,165.8c0,9.6-7.8,17.4-17.4,17.4H35.7
		c-9.6,0-17.4-7.8-17.4-17.4V33.2c0-9.6,7.8-17.4,17.4-17.4h228.6c9.6,0,17.4,7.8,17.4,17.4V165.8z"/>
	<path class="st1" d="M130.2,143.6l60.3-41.8c0.5-0.3,0.9-0.7,1.2-1.2c0.9-1.4,0.9-3.3,0-4.7c-0.3-0.5-0.7-0.9-1.2-1.2l-60.3-41.8
		c-4-4-10.8-1.2-10.8,4.5v81.7C119.4,144.7,126.2,147.6,130.2,143.6z"/>
</g>
</svg>
