<?xml version="1.0" encoding="utf-8"?>
<!-- Generator: Adobe Illustrator 21.0.0, SVG Export Plug-In . SVG Version: 6.00 Build 0)  -->
<svg version="1.1" id="Capa_1" xmlns="http://www.w3.org/2000/svg" xmlns:xlink="http://www.w3.org/1999/xlink" x="0px" y="0px"
	 viewBox="0 0 52.8 61.6" style="enable-background:new 0 0 52.8 61.6;" xml:space="preserve">
<style type="text/css">
	.st0{fill:url(#SVGID_1_);}
	.st1{fill:url(#SVGID_2_);}
	.st2{fill:#D8D9DD;}
	.st3{fill-rule:evenodd;clip-rule:evenodd;fill:#D8D9DD;}
	.st4{clip-path:url(#SVGID_4_);}
	.st5{fill:url(#SVGID_5_);}
	.st6{clip-path:url(#SVGID_7_);}
	.st7{fill:url(#SVGID_8_);}
	.st8{fill:none;stroke:#D8D9DD;stroke-miterlimit:10;}
	.st9{clip-path:url(#SVGID_10_);}
	.st10{fill:url(#SVGID_11_);}
	.st11{clip-path:url(#SVGID_13_);}
	.st12{fill:url(#SVGID_14_);}
	.st13{clip-path:url(#SVGID_16_);}
</style>
<g>
	<path class="st2" d="M49,61.6v-5h3.9V10.9h-7.4c0-1-0.3-1.9-0.7-2.6L51.6,3c0.7-0.6,0.9-1.6,0.3-2.3c-0.6-0.7-1.6-0.9-2.3-0.3
		L42.2,6c-0.6-0.3-1.3-0.4-2-0.4c-0.7,0-1.4,0.1-2,0.4l-7.4-5.7C30-0.2,29-0.1,28.5,0.6C27.9,1.4,28,2.4,28.8,3l6.9,5.3
		c-0.5,0.8-0.7,1.7-0.7,2.6H0v45.8h3.9v5h6.6v-5h31.9v5H49L49,61.6z M4.8,15.9h43.3v27H4.8V15.9z M33.8,52.9c-1.7,0-3.1-1.4-3.1-3.1
		c0-1.7,1.4-3.1,3.1-3.1c1.7,0,3.1,1.4,3.1,3.1C36.9,51.5,35.5,52.9,33.8,52.9z M41,49.8c0-1.7,1.4-3.1,3.1-3.1
		c1.7,0,3.1,1.4,3.1,3.1c0,1.7-1.4,3.1-3.1,3.1C42.3,52.9,41,51.5,41,49.8z"/>
</g>
</svg>
