<svg xmlns="http://www.w3.org/2000/svg" viewBox="0 0 327.33 236.67"><defs><style>.cls-1{fill:#69c3a3;}</style></defs><title>camera_icon</title><g id="Layer_1" data-name="Layer 1"><path class="cls-1" d="M277.3,33.89H150.24l-21.4-21H65.68l-21.4,21H36.82c-13.42,0-23.36,11.24-23.36,24.66V90.89h131.6a2.12,2.12,0,0,0,1.3-.78c5.08-5.08,11-8.5,17.59-11.29A55.93,55.93,0,0,1,207,78.59a54.28,54.28,0,0,1,17.59,11.55,2,2,0,0,0,1.3.75h74.52V58.55C300.46,45.13,290.72,33.89,277.3,33.89Z"/><path class="cls-1" d="M202.6,92.24a41.55,41.55,0,0,0-43.36,5.32,41.84,41.84,0,0,0-8.17,8.73c-.22.31-.45.63-.66.95-.32.48-.95,1-.95,1.46h0c0,.49-.55,1-.82,1.5-.09.17-.15.34-.24.51A41.3,41.3,0,0,0,143.75,127q-.11,1.51-.11,3t.12,3.2a41.58,41.58,0,0,0,41.46,38.38c.54,0,1.07,0,1.61,0l1.06-.05a41.84,41.84,0,0,0,4.69-.56l1-.2,1-.22,1.5-.37a41.61,41.61,0,0,0,30.57-36.94q.12-1.58.12-3.19c0-1-.09-2-.17-3.05a41.36,41.36,0,0,0-4.7-16.29c-.09-.17-.29-.34-.38-.51-.28-.51.92-1-1.08-1.5h0a3,3,0,0,0-.69-1.46c-.21-.32-.2-.63-.42-.95a41.79,41.79,0,0,0-8.14-8.71l0,0a41.54,41.54,0,0,0-7.45-4.77Z"/><path class="cls-1" d="M204.76,92.82c1.79,1.05,3.51,2.41,5.13,3.37A41.4,41.4,0,0,0,204.76,92.82Z"/><path class="cls-1" d="M211.22,96.89h0a12.17,12.17,0,0,1-1.31-.69c.44.34.88.67,1.31,1C211.21,97.22,211.22,96.89,211.22,96.89Z"/><path class="cls-1" d="M204.76,92.82c-.33-.2-.67-.38-1-.55C204.09,92.44,204.42,92.64,204.76,92.82Z"/><path class="cls-1" d="M236.49,108.07a56.3,56.3,0,0,1,4.35,21.81,55.37,55.37,0,0,1-76.89,51q-1.24-.52-2.44-1.1l-1.2-.59-.59-.31a54.91,54.91,0,0,1-6.76-4.21l-.53-.39-1.05-.81c-.35-.27-.68-.55-1-.84-.52-.42-1-.86-1.5-1.3-.83-.74-2.39-1.51-2.39-2.3h0c0-.32-1-.64-1.29-1a5,5,0,0,0-1.71-1.48h0v-1h0c0-.34-2-.7-2-1v0a1.84,1.84,0,0,0-.35-1.12c-.81-1.06-1.1-2.27-1.83-3.38a6.56,6.56,0,0,1-1.67-3.09h0a23.22,23.22,0,0,1-3.14-5.72c-.54-1.28-1.2-2.32-1.64-3.63-.15-.44-.48-.87-.61-1.31s-.77-.88-.77-1.32h0a20.86,20.86,0,0,0-.59-4c0-.23.29-.46.25-.68-.09-.45-.17-.92-.24-1.37a56.08,56.08,0,0,1-.72-9,57,57,0,0,1,.43-7,55.81,55.81,0,0,1,3.93-14.74,82.92,82.92,0,0,1,6.16-11.18H13.46v99c0,14,10.47,25,24.43,25H276.23c14,0,24.24-11.09,24.24-25v-99H230.33A82.9,82.9,0,0,1,236.49,108.07ZM35.39,124.33a7.72,7.72,0,1,1,7.72-7.72A7.72,7.72,0,0,1,35.39,124.33Z"/></g></svg>