<?xml version="1.0" encoding="utf-8"?>
<!-- Generator: Adobe Illustrator 21.0.0, SVG Export Plug-In . SVG Version: 6.00 Build 0)  -->
<svg version="1.1" id="Capa_1" xmlns="http://www.w3.org/2000/svg" xmlns:xlink="http://www.w3.org/1999/xlink" x="0px" y="0px"
	 viewBox="0 0 61.3 56.7" style="enable-background:new 0 0 61.3 56.7;" xml:space="preserve">
<style type="text/css">
	.st0{fill:url(#SVGID_1_);}
	.st1{fill:url(#SVGID_2_);}
	.st2{fill:#D8D9DD;}
	.st3{fill-rule:evenodd;clip-rule:evenodd;fill:#D8D9DD;}
	.st4{clip-path:url(#SVGID_4_);}
	.st5{fill:url(#SVGID_5_);}
	.st6{clip-path:url(#SVGID_7_);}
	.st7{fill:url(#SVGID_8_);}
	.st8{fill:none;stroke:#D8D9DD;stroke-miterlimit:10;}
	.st9{clip-path:url(#SVGID_10_);}
	.st10{fill:url(#SVGID_11_);}
	.st11{clip-path:url(#SVGID_13_);}
	.st12{fill:url(#SVGID_14_);}
	.st13{clip-path:url(#SVGID_16_);}
</style>
<g>
	<polygon class="st2" points="32.1,46.3 32.6,41 20.6,41 21,46.3 	"/>
	<polygon class="st2" points="34.4,39.3 45.3,39.3 47.6,30.4 35.1,30.4 	"/>
	<polygon class="st2" points="8.3,41 9.7,46.3 19.3,46.3 18.9,41 	"/>
	<polygon class="st2" points="44.9,41 34.3,41 33.8,46.3 43.5,46.3 	"/>
	<path class="st2" d="M53.5,14.5c-0.6,0-1,0.2-1.4,0.4c-0.2,0.1-0.4,0.3-0.6,0.5c-2.3,2.3-4.6,4.6-6.8,6.9c-0.3,0.3-0.4,0.5-0.5,0.8
		h-8.4l-0.5,5.6H48l1-3.6c1.8-1.8,3.6-3.7,5.5-5.4h4.4c3.3,0,3.3-5.3,0-5.3H53.5z"/>
	<polygon class="st2" points="19.6,28.7 33.6,28.7 34,23.1 19.1,23.1 	"/>
	<polygon class="st2" points="18.8,39.3 18.1,30.4 5.6,30.4 7.9,39.3 	"/>
	<polygon class="st2" points="3.6,23.1 5.1,28.7 17.9,28.7 17.4,23.1 	"/>
	<polygon class="st2" points="33.4,30.4 19.7,30.4 20.5,39.3 32.7,39.3 	"/>
	<circle class="st2" cx="14.8" cy="52.2" r="4.5"/>
	<circle class="st2" cx="38.4" cy="52.2" r="4.5"/>
	<path class="st2" d="M15.3,14.2L13,16.5l16.5,3.6L26.3,3.5L24,5.8C12.7-5.9,0,3.7,0,3.7S6.1,4.8,15.3,14.2z"/>
</g>
</svg>
