<?xml version="1.0" encoding="utf-8"?>
<!-- Generator: Adobe Illustrator 21.0.0, SVG Export Plug-In . SVG Version: 6.00 Build 0)  -->
<svg version="1.1" xmlns="http://www.w3.org/2000/svg" xmlns:xlink="http://www.w3.org/1999/xlink" x="0px" y="0px"
	 viewBox="0 0 273.8 267.6" style="enable-background:new 0 0 273.8 267.6;" xml:space="preserve">
<style type="text/css">
	.st0{fill:#CD541F;}
	.st1{fill:#FFFFFF;}
	.st2{fill:#38929A;}
	.st3{fill:#51A888;}
	.st4{fill:#E09B26;}
	.st5{fill:#733999;}
	.st6{fill:#FF9933;}
	.st7{fill-rule:evenodd;clip-rule:evenodd;fill:#FFFFFF;}
	.st8{fill:none;stroke:#999999;stroke-miterlimit:10;}
	.st9{fill:#33CC99;}
</style>
<g id="Layer_2">
</g>
<g id="Layer_1">
	<path class="st6" d="M273.8,107.3C273.8,48.1,212.5,0,136.9,0C61.3,0,0,48.1,0,107.3C0,164.4,56.8,211,128.4,214.5l58.6,53.1
		l-30.6-54C222.8,206.2,273.8,161.4,273.8,107.3z M85.3,122.6c-8.8,0-15.9-7.1-15.9-15.9c0-8.8,7.1-15.9,15.9-15.9
		c8.8,0,15.9,7.1,15.9,15.9C101.2,115.4,94.1,122.6,85.3,122.6z M136.9,122.6c-8.8,0-15.9-7.1-15.9-15.9c0-8.8,7.1-15.9,15.9-15.9
		c8.8,0,15.9,7.1,15.9,15.9C152.9,115.4,145.7,122.6,136.9,122.6z M188.6,122.6c-8.8,0-15.9-7.1-15.9-15.9c0-8.8,7.1-15.9,15.9-15.9
		c8.8,0,15.9,7.1,15.9,15.9C204.5,115.4,197.4,122.6,188.6,122.6z"/>
</g>
</svg>
