<?xml version="1.0" encoding="utf-8"?>
<!-- Generator: Adobe Illustrator 23.0.1, SVG Export Plug-In . SVG Version: 6.00 Build 0)  -->
<svg version="1.1" id="Camada_1" xmlns="http://www.w3.org/2000/svg" xmlns:xlink="http://www.w3.org/1999/xlink" x="0px" y="0px"
	 viewBox="0 0 17.4 17.4" style="enable-background:new 0 0 17.4 17.4;" xml:space="preserve">
<style type="text/css">
	.st0{fill:#FFFFFF;}
</style>
<g>
	<path class="st0" d="M7.2,9.8c-0.9,0-1.7,0-2.2,0c0.6-1,1.1-1.9,1.5-2.7l0.8-1.4V2.1h-1c-0.2,0-0.4-0.3-0.4-0.6S6.1,1,6.4,1h4.7
		c0.3,0,0.6,0.2,0.6,0.6c0,0.3-0.3,0.5-0.6,0.5h-1v3.6l0.4,0.6l0.7-0.7l-0.1-0.2V3c0.8,0,1.5-0.7,1.5-1.5S11.9,0,11.1,0H6.4
		C5.6,0,4.9,0.7,4.9,1.5S5.6,3,6.4,3v2.4L5.7,6.7c-0.9,1.5-2.3,4-3.2,5.6l-1,1.7c-0.3,0.4-0.4,1-0.4,1.4c0,0.2,0,0.5,0.1,0.7
		L7.2,9.8z"/>
	<path class="st0" d="M15,12.2c-0.8-1.3-1.9-3.3-2.8-4.8l-0.7,0.7c0.3,0.5,0.6,1.1,0.9,1.7c-0.6,0-1.5,0-2.5,0l-3.3,3.5
		c0.3,0.1,0.5,0.4,0.5,0.7c0,0.5-0.4,0.8-0.8,0.8c-0.3,0-0.6-0.2-0.7-0.4l-2.8,2.9c0.2,0.1,0.4,0.1,0.7,0.1h2.1c1.7,0,4.6,0,6.4,0h2
		c0.7,0,1.3-0.2,1.8-0.5c0.2-0.2,0.4-0.4,0.5-0.6c0.1-0.3,0.2-0.5,0.2-0.8c0-0.5-0.2-1-0.5-1.5L15,12.2z M8.5,13.9
		c-0.5,0-0.8-0.3-0.8-0.8c0-0.4,0.3-0.8,0.8-0.8c0.4,0,0.8,0.3,0.8,0.8C9.3,13.5,8.9,13.9,8.5,13.9z"/>
</g>
</svg>
