<?xml version="1.0" encoding="utf-8"?>
<!-- Generator: Adobe Illustrator 21.0.0, SVG Export Plug-In . SVG Version: 6.00 Build 0)  -->
<svg version="1.1" id="Capa_1" xmlns="http://www.w3.org/2000/svg" xmlns:xlink="http://www.w3.org/1999/xlink" x="0px" y="0px"
	 viewBox="0 0 49.5 56" style="enable-background:new 0 0 49.5 56;" xml:space="preserve">
<style type="text/css">
	.st0{fill:url(#SVGID_1_);}
	.st1{fill:url(#SVGID_2_);}
	.st2{fill:#D8D9DD;}
	.st3{fill-rule:evenodd;clip-rule:evenodd;fill:#D8D9DD;}
	.st4{clip-path:url(#SVGID_4_);}
	.st5{fill:url(#SVGID_5_);}
	.st6{clip-path:url(#SVGID_7_);}
	.st7{fill:url(#SVGID_8_);}
	.st8{fill:none;stroke:#D8D9DD;stroke-miterlimit:10;}
	.st9{clip-path:url(#SVGID_10_);}
	.st10{fill:url(#SVGID_11_);}
	.st11{clip-path:url(#SVGID_13_);}
	.st12{fill:url(#SVGID_14_);}
	.st13{clip-path:url(#SVGID_16_);}
</style>
<g>
	<path class="st2" d="M2,47.5c-2,1.9-2.1,4.4-2,7c0.1,2,3.2,2,3.1,0c-0.1-1.6-0.3-3.8,1.2-4.8C5,49.2,5.8,49,6.7,49v6.2h42.7V0H6.7
		v0C5,0,3.3,0.4,2,1.6c-2,1.9-2.1,4.4-2,7c0.1,2,3.2,2,3.1,0C3,6.9,2.8,4.8,4.3,3.7C5,3.2,5.8,3,6.7,3v8.5c-1.7,0-3.4,0.4-4.7,1.6
		c-2,1.9-2.1,4.4-2,7c0.1,2,3.2,2,3.1,0c-0.1-1.6-0.3-3.8,1.2-4.8c0.7-0.5,1.6-0.7,2.5-0.7V23C5,23,3.3,23.4,2,24.6
		c-2,1.9-2.1,4.4-2,7c0.1,2,3.2,2,3.1,0c-0.1-1.6-0.3-3.8,1.2-4.8C5,26.2,5.8,26,6.7,26v8.5c-1.7,0-3.4,0.4-4.7,1.6
		c-2,1.9-2.1,4.4-2,7c0.1,2,3.2,2,3.1,0c-0.1-1.6-0.3-3.8,1.2-4.8c0.7-0.5,1.6-0.7,2.5-0.7V46C5,46,3.3,46.3,2,47.5z M16.5,5.8h23.2
		v12.4H16.5V5.8z"/>
</g>
</svg>
