<?xml version="1.0" encoding="utf-8"?>
<!-- Generator: Adobe Illustrator 21.0.0, SVG Export Plug-In . SVG Version: 6.00 Build 0)  -->
<svg version="1.1" id="Layer_1" xmlns="http://www.w3.org/2000/svg" xmlns:xlink="http://www.w3.org/1999/xlink" x="0px" y="0px"
	 viewBox="0 0 25 14.2" style="enable-background:new 0 0 25 14.2;" xml:space="preserve">
<style type="text/css">
	.st0{fill:#F4AE4A;}
	.st1{fill:#00FF00;}
</style>
<path class="st0" d="M23.5,2.9H1.5C0.7,2.9,0,2.3,0,1.5v0C0,0.7,0.7,0,1.5,0l22.1,0C24.3,0,25,0.7,25,1.5v0
	C25,2.3,24.3,2.9,23.5,2.9z"/>
<path class="st0" d="M23.5,8.6H1.5C0.7,8.6,0,7.9,0,7.1v0c0-0.8,0.7-1.5,1.5-1.5h22.1c0.8,0,1.5,0.7,1.5,1.5v0
	C25,7.9,24.3,8.6,23.5,8.6z"/>
<path class="st0" d="M23.5,14.2H1.5c-0.8,0-1.5-0.7-1.5-1.5v0c0-0.8,0.7-1.5,1.5-1.5h22.1c0.8,0,1.5,0.7,1.5,1.5v0
	C25,13.6,24.3,14.2,23.5,14.2z"/>
<rect x="4.2" y="18.6" class="st1" width="2.8" height="2.8"/>
</svg>
