<?xml version="1.0" encoding="utf-8"?>
<!-- Generator: Adobe Illustrator 21.0.0, SVG Export Plug-In . SVG Version: 6.00 Build 0)  -->
<svg version="1.1" id="Camada_1" xmlns="http://www.w3.org/2000/svg" xmlns:xlink="http://www.w3.org/1999/xlink" x="0px" y="0px"
	 viewBox="0 0 16.3 16.2" style="enable-background:new 0 0 16.3 16.2;" xml:space="preserve">
<style type="text/css">
	.st0{fill:#94C123;}
	.st1{fill:#FFFFFF;}
	.st2{fill-rule:evenodd;clip-rule:evenodd;fill:none;stroke:#FFFFFF;stroke-width:8;stroke-miterlimit:10;}
	.st3{fill-rule:evenodd;clip-rule:evenodd;fill:#FFFFFF;}
	.st4{fill:#F9B122;}
	.st5{fill:#009062;}
	.st6{clip-path:url(#XMLID_71_);fill:none;stroke:#F9B122;stroke-width:2;stroke-miterlimit:10;}
</style>
<path id="XMLID_51_" class="st1" d="M11.6,15.5c6-3,5.8-11.2,1.6-15.2c-0.5-0.4-1.2-0.3-1.4,0c-2,2-3.4,4.9-3.3,7.9
	C6.3,5.4,3.2,3.4,0.4,3.7c-0.4,0-0.4,0.5-0.2,0.7c1.2,2.7,1.4,5.7,3,8.3c1.4,2.4,4.1,3.5,6.8,3.2c0,0,0.1,0,0.1,0
	c0,0.1,0.1,0.1,0.1,0.2c0.2,0.2,0.5,0.1,0.5-0.2c0.1,0.1,0.4,0,0.4-0.1c0.1-0.3,0.1-0.6,0.1-0.9c1.4-1.9,1.4-4.4,0.6-6.5
	c-0.1-0.3-0.5-0.1-0.4,0.2c0.5,1.7,0.3,3.4-0.3,5c-0.2-1.5-0.9-3.1-1.9-4.5c0.1,0,0.1-0.1,0.2-0.2c0.5-2.9,1.1-5.2,3.1-7.3
	c3.1,4.2,3.8,10.2-1.1,13.4C11,14.9,11.3,15.6,11.6,15.5z M10.8,15.5c0,0.1,0,0.1,0,0.2c0,0.2,0,0.3,0.1,0.5
	c-0.7-2.1-2.7-4.3-4.6-5.3c-0.1-0.1-0.3,0.3-0.3,0.4c0.8,0.8,1.5,1.6,2.2,2.5c0.5,0.6,1.2,1.3,1.6,1.9c-1.4-0.3-2.5-1-3.8-1.9
	c-1.5-1-2-2.4-2.6-4C2.9,8.2,2.8,7,1.8,5.7c2.7,0.8,4,1.8,5.9,4C9.2,11.5,10.5,13.2,10.8,15.5z"/>
</svg>
