<?xml version="1.0" encoding="utf-8"?>
<!-- Generator: Adobe Illustrator 23.0.1, SVG Export Plug-In . SVG Version: 6.00 Build 0)  -->
<svg version="1.1" id="Camada_1" xmlns="http://www.w3.org/2000/svg" xmlns:xlink="http://www.w3.org/1999/xlink" x="0px" y="0px"
	 viewBox="0 0 17.4 17.4" style="enable-background:new 0 0 17.4 17.4;" xml:space="preserve">
<style type="text/css">
	.st0{fill:#FFFFFF;}
</style>
<path id="XMLID_51_" class="st0" d="M12.4,16.6c6.5-3.2,6.2-12,1.7-16.3c-0.5-0.4-1.3-0.3-1.5,0C10.5,2.5,9,5.6,9.1,8.8
	C6.7,5.8,3.4,3.6,0.4,4c-0.4,0-0.4,0.5-0.2,0.8c1.3,2.9,1.5,6.1,3.2,8.9c1.5,2.6,4.4,3.8,7.3,3.4h0.1c0,0.1,0.1,0.1,0.1,0.2
	c0.2,0.2,0.5,0.1,0.5-0.2c0.1,0.1,0.4,0,0.4-0.1c0.1-0.3,0.1-0.6,0.1-1c1.5-2,1.5-4.7,0.6-7c-0.1-0.3-0.5-0.1-0.4,0.2
	c0.5,1.8,0.3,3.7-0.3,5.4c-0.2-1.6-1-3.3-2-4.8c0.1,0,0.1-0.1,0.2-0.2c0.5-3.1,1.2-5.6,3.3-7.9c3.3,4.5,4.1,11-1.2,14.4
	C11.8,16,12.1,16.8,12.4,16.6z M11.5,16.6c0,0.1,0,0.1,0,0.2c0,0.2,0,0.3,0.1,0.5c-0.8-2.3-2.9-4.6-4.9-5.7
	c-0.1-0.1-0.3,0.3-0.3,0.4C7.2,13,8,13.9,8.7,14.8c0.5,0.6,1.3,1.4,1.7,2c-1.5-0.3-2.7-1.1-4.1-2c-1.6-1.1-2.2-2.6-2.8-4.3
	C3,8.8,2.9,7.5,1.9,6.1C4.8,7,6.2,8,8.2,10.4C9.8,12.3,11.2,14.2,11.5,16.6z"/>
</svg>
