<?xml version="1.0" encoding="utf-8"?>
<!-- Generator: Adobe Illustrator 21.0.0, SVG Export Plug-In . SVG Version: 6.00 Build 0)  -->
<svg version="1.1" id="Layer_1" xmlns="http://www.w3.org/2000/svg" xmlns:xlink="http://www.w3.org/1999/xlink" x="0px" y="0px"
	 viewBox="0 0 267 102.1" style="enable-background:new 0 0 267 102.1;" xml:space="preserve">
<style type="text/css">
	.st0{fill:#F7A719;}
	.st1{fill:#FFFFFF;}
</style>
<g>
	<g>
		<g id="XMLID_8_">
			<path id="XMLID_17_" class="st1" d="M4.8,8.8c-0.5,2.8,0.2,4.3,1.6,5.7c1.5,1.4,5.8,1.7,5.8,1.7C12.2,10.3,7.3,12.3,4.8,8.8z"/>
			<path id="XMLID_16_" class="st1" d="M6.1,15.9C6,18.6,6.9,20,8.6,21.2c1.7,1.2,6.2,1.1,6.2,1.1C13.9,16.6,9.2,19,6.1,15.9z"/>
			<path id="XMLID_15_" class="st1" d="M11.9,28.6c0.6,2.5,1.9,3.6,4,4.4c2.1,0.8,6.7-0.1,6.7-0.1C20.2,27.8,16,30.8,11.9,28.6z"/>
			<path id="XMLID_14_" class="st1" d="M11.8,27.3c1.9,1,6.5,0.5,6.5,0.5c-1.6-5.4-6.1-2.7-9.7-5.4C8.8,25.1,9.9,26.3,11.8,27.3z"/>
			<path id="XMLID_13_" class="st1" d="M23.9,31.9c0,0,1.9-3.6,1.7-5.4c-0.1-1.8-0.6-3-2.5-4.4C23,26.4,18.2,29,23.9,31.9z"/>
			<path id="XMLID_12_" class="st1" d="M16.2,21.6c0,0,2.7-3.4,3.1-5.3c0.4-1.9,0.3-3.2-1.1-5C16.9,15.7,11.8,17.5,16.2,21.6z"/>
			<path id="XMLID_11_" class="st1" d="M19.6,27c0,0,2.3-3.5,2.4-5.4c0.1-1.9-0.2-3.1-1.8-4.7C19.5,21.3,14.5,23.5,19.6,27z"/>
			<path id="XMLID_10_" class="st1" d="M13.6,15.7c0,0,3.1-3.2,3.7-5.2C18,8.5,18,7.1,17,5.2C15.1,9.6,10,11.1,13.6,15.7z"/>
			<path id="XMLID_9_" class="st1" d="M12.6,7.8c1.2-2.8,0.1-3.6-1.3-5.5C10.9,1.7,10.1,0,10.1,0S9.6,1.7,9,2.9
				C7.8,5.5,6.9,7.2,8.9,9c1.2,1,2.2,1.1,2.2,1.1S11.9,9.4,12.6,7.8z"/>
		</g>
		<path id="XMLID_4_" class="st1" d="M27.2,34.4c0.2,1.5,0.6,2.8,1.2,4.1c0.5,1.2,1.3,2.4,2.1,3.6c0.7,0.9,1.4,1.7,2.4,2.4
			c0.9,0.7,1.9,1.3,2.9,1.7c1-1.3,2.1-2.6,3.3-3.9c1.2-1.3,2.4-2.5,3.8-3.6c1.3-1.1,2.8-2.1,4.3-2.9c1.5-0.8,3.1-1.4,4.8-1.7
			c0.9-0.2,1.9-0.2,2.8-0.1c1,0.1,1.9,0.3,2.7,0.7c0.8,0.4,1.5,0.9,2.1,1.6c0.6,0.7,0.9,1.6,1.1,2.6c0.2,1.5,0,3-0.6,4.4
			c-0.6,1.4-1.5,2.6-2.5,3.8c-2.2,2.6-5,4.5-8.2,5.7c-3.3,1.2-6.6,1.7-10,1.4c-1.1,1.9-2.2,3.8-3.3,5.7c-1.1,1.9-2.4,3.7-3.6,5.6
			c-0.9,1.2-1.8,2.5-2.8,3.7c-1,1.3-2,2.5-3,3.7c1.5,1,3,2.1,4.3,3.3c1.4,1.2,2.7,2.3,4.2,3.5c1.8,1.6,3.7,3.2,5.6,4.6
			c1.9,1.4,4,2.6,6.2,3.5c2.3,1.1,4.8,1.7,7.5,1.9c2.7,0.2,5.3-0.2,7.8-1.2c-0.5,3.4-1.9,6-4.3,7.6c-2.4,1.6-5.4,2.2-9.1,1.8
			c-1.8-0.2-3.5-0.7-5.1-1.3c-1.6-0.7-3.1-1.5-4.6-2.4c-1.5-0.9-2.8-2-4.2-3.1c-1.3-1.1-2.6-2.4-3.8-3.6c-1.6-1.7-3.1-3.3-4.7-5
			c-1.5-1.7-3.1-3.3-4.7-4.9c-1.6,1.3-3.3,2.4-5.2,3.2c-1.9,0.9-3.9,1.4-6,1.6C7.9,82.5,5.8,82,4.3,81c-1.5-1.1-2.5-2.4-2.8-3.9
			c-0.4-1.5-0.2-3,0.6-4.5C2.8,71,4,69.8,5.8,69c1.9-0.9,4-1.3,6.4-1.3c2.4,0,4.6,0.4,6.7,1.2c0.4,0.2,0.6,0.3,0.9,0.3
			c0.4-0.5,0.7-0.9,1-1.4c0.3-0.4,0.7-0.9,1-1.4c1.7-2.4,3.3-4.8,4.8-7.2c1.5-2.4,3.1-4.8,4.8-7.2c-1.3-0.6-2.5-1.4-3.6-2.2
			C26.8,49,25.8,48,25,47c-0.8-1.1-1.4-2.3-1.8-3.5c-0.4-1.3-0.5-2.6-0.2-4.1c0.2-1,0.5-1.8,0.9-2.4c0.4-0.7,0.8-1.2,1.3-1.5
			c0.4-0.4,0.9-0.6,1.3-0.8C26.8,34.4,27,34.4,27.2,34.4z M9.3,77c1.3-0.4,2.5-0.8,3.7-1.5c1.1-0.6,2.2-1.4,3.2-2.3
			c-1.5-0.8-3-1.4-4.6-1.7c-1.6-0.3-3.1-0.1-4.5,0.6C6,72.6,5.4,73.2,5,73.9c-0.4,0.7-0.4,1.3-0.2,1.9c0.2,0.5,0.7,1,1.5,1.3
			C7,77.3,8,77.3,9.3,77z M42.5,48.1c1.5,0.1,2.9,0.1,4.3-0.1c1.4-0.2,2.8-0.6,4.2-1.2c0.6-0.3,1.2-0.7,1.9-1.2
			c0.7-0.5,1.3-1,1.9-1.5c0.6-0.6,1.1-1.2,1.5-1.9c0.4-0.7,0.6-1.4,0.7-2.1c0.1-0.7-0.1-1.4-0.5-2c-0.4-0.6-1-0.9-1.8-1.1
			c-1-0.2-1.9-0.1-2.8,0.3c-0.9,0.4-1.7,0.9-2.5,1.4c-1.5,1.1-2.8,2.5-3.9,4.1c-1,1.6-2,3.2-2.9,4.8L42.5,48.1z"/>
		<path id="XMLID_1_" class="st1" d="M82.3,53.4c-0.5,0.7-1.1,1.5-1.7,2.6c-0.7,1.1-1.4,2.2-2.1,3.4c-0.7,1.2-1.5,2.5-2.2,3.8
			c-0.7,1.3-1.4,2.6-1.9,3.8c-1.2,2.5-2.1,4.5-2.8,6.2c-0.7,1.7-0.8,2.7-0.5,3.2c0.1,0.2,0.4,0.3,0.7,0.3c0.3,0,0.7-0.1,1.1-0.2
			c0.4-0.1,0.8-0.3,1.1-0.5c0.3-0.2,0.6-0.3,0.7-0.4c1-0.6,1.8-1.3,2.6-2.1c0.7-0.8,1.4-1.7,2.1-2.5c0.6-0.8,1.2-1.7,1.8-2.6
			c0.6-0.9,1.1-1.8,1.6-2.7c0.5-0.1,1-0.1,1.4,0c0.4,0.1,0.6,0.5,0.8,1.1c-0.6,1.1-1.2,2.3-1.8,3.4c-0.6,1.1-1.2,2.2-2,3.2
			c-0.7,1.1-1.4,2.1-2.2,3c-0.8,1-1.6,1.9-2.5,2.8c-0.8,0.8-1.7,1.6-2.7,2.2c-1,0.6-2.1,0.9-3.3,0.9c-1.2,0-2.3-0.4-3.3-1.1
			c-1-0.7-1.7-1.6-2.1-2.8c-0.2-0.5-0.4-1.1-0.5-1.8c-0.7,1-1.5,1.9-2.2,2.8c-0.8,0.8-1.7,1.5-2.7,2.1c-1.4,0.8-2.9,1.1-4.4,1
			c-1.5-0.1-2.9-0.7-4-1.8c-1.1-1-1.8-2.2-2.2-3.6c-0.4-1.4-0.6-2.8-0.6-4.2c0-1.8,0.3-3.5,0.9-5.2c0.5-1.7,1.2-3.4,2.1-4.9
			c0.9-1.6,1.8-3.1,3-4.4c1.1-1.4,2.3-2.6,3.6-3.8c1.2-1.1,2.6-2.1,4.2-2.8c1.6-0.7,3.2-1,4.8-0.9c1.6,0.1,3.1,0.6,4.3,1.5
			c1.2,0.9,2.1,2.1,2.7,3.6c0.5-0.6,1.1-1.2,1.8-1.7c0.7-0.5,1.4-0.9,2.1-1.2c0.8-0.3,1.6-0.4,2.5-0.4C81,52.6,81.7,52.9,82.3,53.4z
			 M61.4,71.4c2-1.4,3.8-3.2,5.3-5.4c1.6-2.2,2.6-4.5,3.1-7c0.2-0.9,0.2-1.8-0.1-2.7c-0.3-0.9-0.9-1.4-2-1.6c-0.9-0.1-1.7,0-2.4,0.5
			c-0.7,0.5-1.4,1-2,1.6c-1.9,1.8-3.4,4-4.6,6.3c-1.2,2.4-2.1,4.8-2.7,7.4c-0.6,2.5-0.5,4.2,0.4,5c0.8,0.8,1.9,0.8,3.3,0.1
			c0.9-0.5,1.8-1.1,2.6-1.8c0.8-0.7,1.6-1.4,2.3-2.2c-0.6,0.1-1.2,0.2-1.9,0.2C62.2,72,61.7,71.8,61.4,71.4z"/>
		<g>
			<path class="st1" d="M164.2,49c-0.4-2.9-1.6-5.4-3.4-7.6c-0.9-1.1-1.9-2-3.1-2.8c-1.2-0.8-2.5-1.5-3.9-2c1.7-1.1,3.8-1.7,6.2-2
				c-0.2-0.3-0.6-0.5-1.2-0.6c-0.6-0.1-1.1-0.2-1.5-0.3c-0.7-0.1-1.3-0.1-2-0.1c-0.7,0-1.3,0.1-1.9,0.3c-0.7,0.2-1.4,0.4-2,0.6
				c-0.6,0.2-1.3,0.5-1.9,0.8c-1.7-0.3-3.5-0.5-5.3-0.6c-1.8-0.1-3.6,0-5.3,0.2c-1.7,0.2-3.4,0.5-4.9,0.9c-1.6,0.4-3,0.9-4.3,1.4
				c-1.9,0.9-3.7,2-5.3,3.3c-1.6,1.3-3,2.9-4.1,4.7c-0.5,0.9-1,1.8-1.3,2.9c-0.3,1-0.5,2.1-0.5,3.1c0,1.1,0.1,2.1,0.5,3.1
				c0.4,1,1,1.8,1.8,2.5c0.8,0.7,1.7,1.1,2.6,1.3c0.9,0.2,1.8,0.2,2.8,0c0.9-0.2,1.8-0.6,2.7-1.1c0.9-0.5,1.6-1.1,2.3-1.8
				c0.7-0.7,1.3-1.6,1.8-2.6c0.6-1,1-2.1,1.3-3.2c0.3-1.1,0.4-2.2,0.3-3.3c-0.1-1.1-0.5-2-1.2-2.9c-0.1,0.6-0.3,1.4-0.7,2.3
				c-0.4,0.9-0.8,1.8-1.4,2.6c-0.4,0.6-1,1.3-1.9,2.2c-0.9,0.8-1.7,1.5-2.5,1.9c-0.8,0.5-1.6,0.6-2.2,0.5c-0.6-0.2-0.9-0.9-0.8-2.3
				c0-1,0.2-1.9,0.6-2.9c0.4-0.9,0.8-1.8,1.4-2.7c0.5-0.9,1.2-1.7,1.9-2.4c0.7-0.7,1.4-1.4,2.2-2c2.2-1.8,4.8-2.9,7.7-3.4
				c2.9-0.5,5.7-0.4,8.5,0.3c-1.5,1.1-2.8,2.4-4,3.9c-1.2,1.4-2.3,3-3.3,4.6c-1,1.6-1.9,3.2-2.8,4.9c-0.9,1.6-1.7,3.2-2.4,4.8
				c-0.8,1.7-1.6,3.3-2.3,4.9c-0.7,1.6-1.5,3.2-2.3,4.8c-0.7,0.1-1.5,0.3-2.2,0.6c-0.7,0.3-1.3,0.9-1.6,1.6c-0.2,0.5-0.2,0.7,0,0.6
				c0.2-0.1,0.7-0.2,1.4-0.3c0.2,0,0.4,0,0.6,0c0.2,0,0.4,0,0.6,0l-1.2,2.2c-0.6,1-1.3,2-1.9,3.1c-0.7,1.1-1.4,2.1-2.1,3.1
				c-0.8,1-1.6,1.9-2.5,2.7c-0.9,0.8-1.9,1.5-2.9,2.1c-0.9,0.5-1.8,0.9-2.8,1.2c-1,0.3-2,0.4-3,0.5c-1,0-2-0.1-3-0.4
				c-1-0.3-1.8-0.8-2.5-1.6c-0.7-0.7-1.3-1.6-1.6-2.6c-0.4-1-0.6-2.1-0.7-3.3c-0.1-1.2-0.1-2.4,0.1-3.6c0.2-1.2,0.4-2.4,0.8-3.6
				c0.4-1.3,1.1-2.5,1.9-3.6c0.8-1.1,1.7-2,2.7-2.7c1-0.7,2.1-1.2,3.2-1.4c1.1-0.2,2.2-0.1,3.2,0.4c1.1,0.5,1.9,1.3,2.3,2.2
				c0.5,1,0.7,2,0.6,3.2c-0.1,1.2-0.4,2.4-0.9,3.7c-0.5,1.3-1.2,2.4-1.9,3.5c-0.8,1.1-1.7,2-2.6,2.8c-1,0.8-2,1.3-3,1.6
				c0.9,0.4,1.8,0.5,2.8,0.5c1,0,1.9-0.1,2.8-0.4c2.4-0.6,4.3-1.9,5.8-3.8c1.5-1.9,2.4-4.1,2.6-6.4c0.1-1.2,0.1-2.3-0.2-3.5
				c-0.3-1.1-0.7-2.2-1.4-3.1c-0.6-0.9-1.4-1.7-2.4-2.4c-1-0.7-2-1.1-3.2-1.3c-2.2-0.4-4.3-0.3-6.5,0.4c-2.2,0.7-4.1,1.8-5.8,3.1
				c-1.8,1.5-3.2,3.4-4.2,5.5c-0.9,2.1-1.4,4.3-1.4,6.5c0,2.2,0.5,4.4,1.5,6.6c1,2.1,2.5,3.9,4.5,5.4c1.6,1.2,3.4,2.1,5.2,2.5
				c1.8,0.4,3.8,0.5,5.7,0.3c2.5-0.4,4.8-1.2,6.9-2.4c2.1-1.3,3.9-2.8,5.6-4.6c1.4-1.5,2.8-3.2,4-4.9c1.2-1.8,2.3-3.6,3.4-5.4
				c1.1,0.3,2.2,0.6,3.3,0.8c1.1,0.2,2.2,0.4,3.4,0.4c2.2,0,4.3-0.3,6.4-0.9c2.1-0.6,4.1-1.5,5.9-2.7c1.8-1.1,3.5-2.5,4.9-4.2
				c1.4-1.6,2.6-3.5,3.5-5.5C164.2,54.7,164.6,51.8,164.2,49z M156.3,49.4c-0.1,2-0.7,4-1.7,5.9c-1,1.9-2.2,3.6-3.7,5.2
				c-1.5,1.6-3.1,2.8-5,3.8c-1.9,1-3.8,1.6-5.7,1.7c-0.9,0.1-1.8,0.1-2.7,0c1.2-2.4,2.4-4.7,3.5-7.1c1.1-2.4,2.2-4.8,3.3-7.2
				c0.8-1.8,1.6-3.5,2.4-5.2c0.8-1.7,1.7-3.4,2.6-5.1c0.5-0.9,1-1.7,1.6-2.3h0.1c1.9,1,3.3,2.4,4.3,4.2
				C156.1,45.1,156.5,47.1,156.3,49.4z"/>
			<path class="st1" d="M243.4,52.3c-0.4-0.7-1-1.1-1.8-1.2c-0.5,0-1.3,0-2.3,0.1c-1.1,0-2.3,0.1-3.6,0.1c-1.3,0-2.7,0.1-4.2,0.1
				c-1.4,0-2.8,0.1-4.1,0.1c-1.3,0-2.4,0-3.3,0c-0.9,0-1.6-0.1-1.9-0.2c-0.4,1.4-0.6,2.6-0.4,3.7c0.2,1.1,0.9,2,2.3,2.7
				c0.6,0.4,1.3,0.5,2.1,0.6c0.8,0,1.7,0,2.5,0c0.9-0.1,1.8-0.2,2.7-0.3c0.9-0.1,1.7-0.2,2.5-0.2c-0.7,0.4-1.2,0.9-1.7,1.3
				c-0.5,0.4-1,0.9-1.6,1.4c-1,0.9-2.1,1.8-3.2,2.9c-1.1,1-2.3,2.1-3.5,3.1c-1.2,1.1-2.4,2.1-3.6,3.1c-1.2,1-2.3,1.9-3.3,2.7
				c-1.2,1-2.5,1.9-3.8,2.8c-0.9,0.6-1.8,1.1-2.7,1.6c-0.5-0.6-1.2-1.1-2.1-1.6c-1.1-0.6-2.3-0.9-3.7-1c-1.4-0.1-2.9-0.1-4.4,0.1
				c-1.6,0.2-3.1,0.4-4.7,0.7c-1.6,0.3-3,0.6-4.4,0.8c1.1-0.7,2.2-1.5,3.4-2.4c1.2-1,2.4-2,3.6-3c1.2-1.1,2.3-2.1,3.5-3.1
				c1.1-1,2.2-2,3.2-2.8c1.2-1,2.4-2,3.7-2.9c1.3-0.9,2.6-1.8,4-2.6c0.7-0.4,1.3-0.7,2-1c0.7-0.3,1.4-0.6,2.1-0.9
				c0.2-2.2,0.1-3.7-0.3-4.4c-0.4-0.7-1-1.1-1.8-1.2c-0.5,0-1.3,0-2.3,0.1c-1.1,0-2.3,0.1-3.6,0.1c-1.3,0-2.7,0.1-4.2,0.1
				c-1.4,0-2.8,0.1-4.1,0.1c-1.3,0-2.4,0-3.3,0c-0.9,0-1.6-0.1-1.9-0.2c-0.4,1.4-0.6,2.6-0.4,3.7c0.2,1.1,0.9,2,2.3,2.7
				c0.6,0.4,1.3,0.5,2.1,0.6c0.8,0,1.7,0,2.5,0c0.9-0.1,1.8-0.2,2.7-0.3c0.9-0.1,1.7-0.2,2.5-0.2c-0.7,0.4-1.2,0.9-1.7,1.3
				c-0.5,0.4-1,0.9-1.6,1.4c-1,0.9-2.1,1.8-3.2,2.9c-1.1,1-2.3,2.1-3.5,3.1c-1.2,1.1-2.4,2.1-3.6,3.1c-1.2,1-2.3,1.9-3.3,2.7
				c-1.1,0.9-2.2,1.7-3.4,2.5c0.7-0.7,1.3-1.4,1.9-2.2c1.6-2,3-4,4-5.9c-0.1-0.8-0.3-1.3-0.8-1.3c-0.4,0-0.9,0.1-1.4,0.2
				c-1,1.8-2.3,3.7-3.7,5.5c-1.5,1.8-3.1,3.4-5,4.6c-2.3,1.4-4.3,2.4-6.2,2.8c-1.8,0.4-3.4,0.3-4.5-0.3c-1.2-0.6-1.9-1.7-2.2-3.3
				c-0.3-1.6-0.1-3.6,0.7-6.1c0.5,0.1,1,0.1,1.5,0.2c0.5,0,1,0,1.5,0c2.1-0.1,4.2-0.6,6.3-1.5c1.9-0.7,3.7-1.8,5.3-3.2
				c1.6-1.4,2.8-3,3.6-5c0.3-0.8,0.5-1.7,0.5-2.5c0-0.8-0.1-1.6-0.4-2.3c-0.3-0.7-0.7-1.4-1.4-1.9c-0.6-0.5-1.4-0.9-2.3-1.2
				c-1.8-0.5-3.8-0.5-6,0c-2.1,0.5-4,1.2-5.6,2c-1.6,0.9-3.1,2-4.5,3.5c-1.4,1.4-2.6,3-3.7,4.7c-1.1,1.7-1.9,3.5-2.5,5.4
				c-0.6,1.9-1,3.7-1,5.6c-0.1,2,0.3,3.9,1.2,5.7c0.9,1.8,2.2,3.3,3.9,4.4c2.2,1.4,4.8,1.7,7.9,0.8c2.5-0.7,5-2,7.5-3.8
				c0,0.2,0.1,0.5,0.1,0.7c0.2,1,0.5,1.6,0.9,2c0.4,0.4,0.9,0.6,1.6,0.6c0.6,0,1.2,0,1.7-0.1c0.6-0.1,1.2-0.2,1.7-0.3
				c2.1-0.2,4.3-0.4,6.6-0.5c2.3-0.1,4.6-0.2,6.8-0.2c2.2,0,4.3,0,6.2,0.1c0.8,0,1.6,0.1,2.3,0.2c0.1,0.1,0.1,0.1,0.2,0.2
				c0.4,0.4,0.9,0.6,1.6,0.6c0.6,0,1.2,0,1.7-0.1c0.6-0.1,1.2-0.2,1.7-0.3c2.1-0.2,4.3-0.4,6.6-0.5c2.3-0.1,4.6-0.2,6.8-0.2
				c2.2,0,4.3,0,6.2,0.1c1.9,0.1,3.5,0.2,4.8,0.5c0.3-1.4,0.2-2.8-0.2-4.1c-0.4-1.3-1.4-2.4-3-3.3c-1.1-0.6-2.3-0.9-3.7-1
				c-1.4-0.1-2.9-0.1-4.4,0.1c-1.6,0.2-3.1,0.4-4.7,0.7c-1.6,0.3-3,0.6-4.4,0.8c1.1-0.7,2.2-1.5,3.4-2.4c1.2-1,2.4-2,3.6-3
				c1.2-1.1,2.3-2.1,3.5-3.1c1.1-1,2.2-2,3.2-2.8c1.2-1,2.4-2,3.7-2.9c1.3-0.9,2.6-1.8,4-2.6c0.7-0.4,1.3-0.7,2-1
				c0.7-0.3,1.4-0.6,2.1-0.9C243.9,54.5,243.8,53.1,243.4,52.3z M173.5,61c1.3-1.8,2.8-3.4,4.4-4.8c0.3-0.2,0.7-0.5,1.2-0.9
				c0.5-0.4,1.1-0.6,1.6-0.9c0.6-0.2,1.1-0.3,1.5-0.2c0.4,0.1,0.7,0.5,0.7,1.2c0.1,1.3-0.2,2.4-1,3.5c-0.7,1.1-1.6,2-2.4,2.8
				c-1,1-2.1,1.8-3.4,2.5c-1.2,0.7-2.5,1.3-3.8,1.7c-0.8,0.3-1.6,0.5-2.2,0.7C171.1,64.7,172.2,62.8,173.5,61z"/>
			<path class="st1" d="M267,40c0-0.4-0.3-0.9-0.6-1.6c-0.4-0.7-1.2-1.3-2.5-1.8c-0.6-0.2-1.2-0.4-1.7-0.5c-0.6-0.1-1.2-0.1-1.8,0
				c-1.1,0.2-1.9,0.8-2.3,1.8c-0.4,1-0.7,2-0.9,3c-0.2,1.2,0,2.3,0.7,3.1c0.7,0.9,1.5,1.4,2.5,1.7c0.9,0.3,1.8,0.3,2.7,0.2
				c0.9-0.2,1.7-0.6,2.4-1.2c0.6-0.6,1-1.3,1.3-2.2C267,41.7,267.1,40.9,267,40z"/>
			<path class="st1" d="M263,65.5c-0.9,1.7-1.9,3.3-3.2,4.8c-1.2,1.5-2.5,2.9-4,4.2c-1.4,1.3-2.6,2.1-3.6,2.5
				c-0.9,0.4-1.6,0.5-2.1,0.2c-0.5-0.3-0.7-0.8-0.8-1.7c0-0.9,0.1-1.9,0.5-3.3c0.4-1.4,0.9-2.8,1.5-4.2c0.6-1.4,1.2-2.7,1.8-4.1
				c0.3-0.7,0.8-1.6,1.4-2.7c0.6-1.1,1.2-2.2,1.9-3.4c0.7-1.2,1.3-2.3,2-3.4c0.7-1.1,1.3-2,1.8-2.6c-0.4-0.5-0.9-0.9-1.6-1.1
				c-0.7-0.2-1.4-0.3-2.1-0.4c-0.7,0-1.4,0.1-2.1,0.3c-0.7,0.2-1.2,0.5-1.6,0.8c-1.2,1-2.3,2.2-3.3,3.7c-0.9,1.4-1.8,2.9-2.6,4.3
				c-1.3,2.3-2.4,4.8-3.3,7.5c-0.9,2.7-1.4,5.3-1.4,8.1c0,1.4,0.2,2.9,0.7,4.3c0.5,1.4,1.5,2.4,3,3c1.4,0.6,3.1,0.5,5-0.3
				c1.9-0.8,4.1-2.5,6.4-5c1.5-1.5,2.9-3.2,4.2-5c1.3-1.8,2.4-3.7,3.4-5.5C264.9,65.3,264.2,64.9,263,65.5z"/>
		</g>
	</g>
</g>
</svg>
