<?xml version="1.0" encoding="utf-8"?>
<!-- Generator: Adobe Illustrator 23.0.1, SVG Export Plug-In . SVG Version: 6.00 Build 0)  -->
<svg version="1.1" id="Layer_1" xmlns="http://www.w3.org/2000/svg" xmlns:xlink="http://www.w3.org/1999/xlink" x="0px" y="0px"
	 viewBox="0 0 3628.3 2220.7" style="enable-background:new 0 0 3628.3 2220.7;" xml:space="preserve">
<style type="text/css">
	.st0{fill:#F6A61C;}
	.st1{fill:#FFFFFF;}
	.st2{fill:#FAE6B0;}
</style>
<g>
	<g>
		<g>
			<g id="XMLID_8_">
				<path id="XMLID_17_" class="st0" d="M46.9,128.1c-6.6,38.2,2.6,59.2,22.4,77.6c19.7,19.7,78.9,23.7,78.9,23.7
					C148.2,147.8,82.4,175.4,46.9,128.1z"/>
				<path id="XMLID_16_" class="st0" d="M66.6,224.1c-1.3,36.8,10.5,55.3,32.9,72.4c23.7,17.1,84.2,15.8,84.2,15.8
					C173.1,233.3,108.7,266.2,66.6,224.1z"/>
				<path id="XMLID_15_" class="st0" d="M144.2,397.8c9.2,34.2,26.3,48.7,55.3,59.2s92.1-1.3,92.1-1.3
					C258.7,385.9,200.8,428,144.2,397.8z"/>
				<path id="XMLID_14_" class="st0" d="M142.9,380.7c26.3,14.5,88.1,6.6,88.1,6.6c-22.4-73.7-84.2-36.8-132.9-73.7
					C102.1,350.4,116.6,366.2,142.9,380.7z"/>
				<path id="XMLID_13_" class="st0" d="M308.7,443.8c0,0,26.3-48.7,23.7-73.7c-1.3-25-9.2-40.8-34.2-59.2
					C296.8,367.5,231,403,308.7,443.8z"/>
				<path id="XMLID_12_" class="st0" d="M203.4,301.7c0,0,36.8-46,42.1-72.4c5.3-26.3,3.9-44.7-15.8-68.4
					C212.6,221.5,142.9,246.5,203.4,301.7z"/>
				<path id="XMLID_11_" class="st0" d="M249.5,375.4c0,0,31.6-48.7,32.9-73.7c1.3-26.3-2.6-43.4-25-64.5
					C248.1,297.8,181,328,249.5,375.4z"/>
				<path id="XMLID_10_" class="st0" d="M167.9,221.5c0,0,42.1-44.7,51.3-71c9.2-26.3,9.2-44.7-5.3-72.4
					C188.9,138.6,117.9,158.3,167.9,221.5z"/>
				<path id="XMLID_9_" class="st0" d="M154.7,113.6c17.1-38.2,1.3-50-17.1-75C131,30.7,120.5,7,120.5,7s-6.6,23.7-14.5,40.8
					C89,82,77.1,105.7,104.7,130.7c15.8,14.5,28.9,14.5,28.9,14.5S144.2,136,154.7,113.6z"/>
			</g>
			<path id="XMLID_4_" class="st1" d="M353.4,476.7c2.6,21,7.9,39.5,15.8,55.3c7.9,17.1,17.1,32.9,28.9,48.7
				c9.2,13.2,19.7,23.7,32.9,32.9s26.3,17.1,39.5,23.7c13.2-18.4,28.9-35.5,44.7-53.9c15.8-17.1,32.9-34.2,51.3-50
				c18.4-15.8,38.2-28.9,57.9-39.5c21-10.5,42.1-18.4,65.8-22.4c13.2-2.6,25-2.6,38.2-1.3c13.2,1.3,25,3.9,36.8,10.5
				c10.5,5.3,21,13.2,28.9,22.4c7.9,9.2,13.2,21,15.8,35.5c2.6,21,0,40.8-9.2,59.2s-19.7,35.5-34.2,51.3
				c-30.3,35.5-68.4,61.8-113.1,78.9c-44.7,17.1-89.5,23.7-135.5,19.7c-14.5,26.3-28.9,52.6-44.7,77.6s-31.6,51.3-50,76.3
				c-11.8,17.1-25,34.2-38.2,51.3c-13.2,17.1-27.6,34.2-40.8,50c21,13.2,40.8,28.9,59.2,44.7c18.4,15.8,36.8,31.6,56.6,48.7
				c25,22.4,51.3,43.4,76.3,63.1c26.3,19.7,53.9,35.5,85.5,48.7c31.6,14.5,65.8,22.4,102.6,25c36.8,2.6,72.4-2.6,106.6-15.8
				c-6.6,47.4-26.3,81.6-57.9,103.9c-32.9,22.4-73.7,30.3-123.7,23.7c-25-2.6-47.4-9.2-69.7-18.4c-22.4-9.2-42.1-19.7-63.1-32.9
				c-19.7-13.2-38.2-27.6-56.6-42.1c-18.4-15.8-35.5-31.6-51.3-50c-21-22.4-43.4-46-64.5-68.4c-21-22.4-42.1-44.7-64.5-67.1
				c-21,17.1-44.7,31.6-71,44.7c-25,11.8-52.6,19.7-81.6,21c-36.8,1.3-65.8-5.3-86.8-19.7c-21-14.5-34.2-32.9-38.2-52.6
				c-5.3-19.7-2.6-40.8,7.9-61.8c10.5-21,27.6-36.8,52.6-48.7c26.3-11.8,55.3-17.1,88.1-17.1s63.1,6.6,90.8,15.8
				c5.3,2.6,9.2,3.9,11.8,3.9c5.3-6.6,9.2-13.2,14.5-18.4c3.9-6.6,9.2-11.8,14.5-18.4c22.4-32.9,44.7-64.5,65.8-98.7
				c21-32.9,43.4-65.8,65.8-98.7c-17.1-7.9-34.2-18.4-48.7-30.3c-15.8-11.8-28.9-25-39.5-39.5c-10.5-14.5-18.4-30.3-23.7-48.7
				c-5.3-17.1-6.6-35.5-2.6-55.3c2.6-13.2,6.6-23.7,11.8-32.9c5.3-9.2,10.5-15.8,17.1-21c6.6-5.3,11.8-9.2,17.1-10.5
				C348.1,476.7,352.1,476.7,353.4,476.7z M108.7,1059.5c18.4-5.3,34.2-11.8,50-19.7c15.8-9.2,30.3-18.4,43.4-31.6
				c-21-11.8-42.1-19.7-63.1-23.7c-22.4-3.9-42.1-1.3-61.8,7.9c-13.2,6.6-21,14.5-26.3,23.7c-5.3,9.2-5.3,18.4-2.6,25
				c2.6,7.9,9.2,13.2,19.7,17.1C78.4,1063.5,91.6,1063.5,108.7,1059.5z M562.6,663.5c19.7,1.3,39.5,1.3,59.2-1.3
				c19.7-2.6,38.2-7.9,56.6-17.1c7.9-3.9,15.8-9.2,25-15.8c9.2-6.6,18.4-13.2,26.3-21c7.9-7.9,14.5-15.8,21-25
				c5.3-9.2,9.2-18.4,9.2-28.9c1.3-10.5-1.3-19.7-6.6-27.6c-6.6-7.9-14.5-13.2-23.7-14.5c-13.2-2.6-26.3-1.3-38.2,3.9
				c-11.8,5.3-23.7,11.8-34.2,19.7c-21,15.8-38.2,34.2-52.6,55.3c-14.5,21-27.6,43.4-39.5,65.8L562.6,663.5z"/>
			<path id="XMLID_1_" class="st1" d="M1105.9,735.9c-6.6,9.2-14.5,21-23.7,35.5c-9.2,14.5-18.4,30.3-28.9,47.4
				c-10.5,17.1-19.7,34.2-30.3,52.6c-10.5,18.4-18.4,35.5-26.3,51.3c-15.8,34.2-28.9,61.8-38.2,84.2c-9.2,22.4-11.8,38.2-6.6,44.7
				c1.3,2.6,5.3,3.9,9.2,3.9c3.9,0,9.2-1.3,14.5-2.6s10.5-3.9,14.5-6.6c3.9-2.6,7.9-5.3,9.2-5.3c13.2-7.9,25-18.4,35.5-28.9
				c10.5-10.5,19.7-22.4,28.9-34.2c7.9-11.8,17.1-23.7,23.7-35.5c7.9-13.2,14.5-25,21-36.8c6.6-1.3,13.2-1.3,18.4,0
				s7.9,6.6,10.5,14.5c-7.9,15.8-17.1,30.3-23.7,46c-7.9,14.5-17.1,30.3-27.6,44.7c-9.2,14.5-19.7,27.6-30.3,40.8
				s-22.4,26.3-34.2,38.2c-11.8,11.8-23.7,21-36.8,30.3c-13.2,9.2-28.9,13.2-46,11.8c-17.1,0-31.6-5.3-44.7-14.5
				c-13.2-9.2-22.4-22.4-28.9-38.2c-2.6-6.6-5.3-15.8-6.6-23.7c-9.2,13.2-19.7,26.3-30.3,38.2c-10.5,11.8-23.7,21-36.8,28.9
				c-19.7,10.5-39.5,15.8-60.5,13.2c-21-1.3-39.5-10.5-55.3-23.7c-14.5-13.2-25-30.3-30.3-48.7c-5.3-18.4-7.9-38.2-7.9-56.6
				c0-23.7,3.9-47.4,11.8-71c6.6-23.7,17.1-46,28.9-67.1c11.8-21,25-42.1,40.8-60.5c15.8-18.4,31.6-35.5,48.7-51.3
				c17.1-15.8,35.5-27.6,56.6-38.2c21-9.2,43.4-13.2,65.8-13.2c22.4,1.3,42.1,7.9,57.9,19.7c17.1,11.8,28.9,28.9,36.8,48.7
				c6.6-7.9,15.8-15.8,25-22.4c9.2-6.6,18.4-11.8,28.9-15.8c10.5-3.9,22.4-6.6,34.2-5.3C1087.5,725.4,1098,729.3,1105.9,735.9z
				 M821.7,983.2c27.6-19.7,51.3-43.4,72.4-73.7c21-30.3,35.5-61.8,42.1-96c2.6-13.2,2.6-25-1.3-36.8c-3.9-11.8-13.2-19.7-27.6-22.4
				c-11.8-1.3-23.7,0-32.9,6.6c-10.5,6.6-19.7,13.2-27.6,21c-26.3,25-46,53.9-63.1,86.8c-15.8,32.9-27.6,65.8-36.8,101.3
				c-7.9,34.2-6.6,57.9,5.3,68.4c10.5,10.5,26.3,11.8,46,1.3c13.2-6.6,25-14.5,35.5-23.7c10.5-9.2,22.4-19.7,31.6-30.3
				c-7.9,1.3-17.1,2.6-25,2.6C830.9,989.8,825.7,987.2,821.7,983.2z"/>
			<g>
				<path class="st1" d="M2224.1,675.4c-6.6-39.5-21-73.7-46-103.9c-11.8-14.5-26.3-27.6-42.1-38.2c-15.8-10.5-34.2-19.7-52.6-27.6
					c23.7-14.5,51.3-23.7,84.2-27.6c-2.6-3.9-7.9-6.6-17.1-7.9c-9.2-1.3-15.8-2.6-19.7-3.9c-9.2-1.3-18.4-1.3-27.6-1.3
					c-9.2,0-18.4,1.3-26.3,3.9c-9.2,2.6-18.4,5.3-27.6,7.9c-9.2,3.9-17.1,6.6-25,11.8c-23.7-3.9-47.4-6.6-72.4-7.9
					c-25-1.3-48.7,0-72.4,2.6s-46,6.6-67.1,11.8s-40.8,11.8-57.9,19.7c-26.3,11.8-50,27.6-72.4,46c-22.4,18.4-40.8,39.5-56.6,64.5
					c-6.6,11.8-13.2,25-17.1,39.5c-3.9,14.5-6.6,28.9-6.6,42.1c0,14.5,1.3,28.9,6.6,42.1s13.2,25,25,34.2s23.7,15.8,35.5,18.4
					c13.2,2.6,25,2.6,38.2,0s25-7.9,36.8-14.5c11.8-6.6,22.4-15.8,31.6-25s17.1-21,25-35.5c7.9-13.2,13.2-27.6,18.4-43.4
					c3.9-14.5,5.3-30.3,3.9-44.7c-1.3-14.5-6.6-27.6-15.8-39.5c-1.3,7.9-3.9,18.4-9.2,31.6s-11.8,25-19.7,35.5
					c-5.3,7.9-14.5,18.4-25,30.3c-11.8,11.8-23.7,19.7-34.2,26.3c-11.8,6.6-21,7.9-30.3,6.6c-7.9-2.6-11.8-13.2-10.5-31.6
					c0-13.2,3.9-26.3,7.9-39.5c5.3-13.2,10.5-25,18.4-36.8c7.9-11.8,15.8-22.4,25-32.9c9.2-10.5,19.7-19.7,30.3-27.6
					c30.3-25,65.8-40.8,105.2-47.4c39.5-6.6,78.9-5.3,115.8,3.9c-19.7,15.8-38.2,32.9-53.9,52.6c-17.1,19.7-31.6,40.8-46,63.1
					c-13.2,22.4-26.3,44.7-38.2,67.1c-11.8,22.4-22.4,44.7-32.9,65.8c-10.5,22.4-21,44.7-31.6,67.1c-10.5,22.4-21,43.4-31.6,65.8
					c-10.5,1.3-21,3.9-30.3,7.9c-10.5,3.9-17.1,11.8-22.4,22.4c-2.6,6.6-2.6,10.5,0,7.9c3.9-1.3,9.2-2.6,18.4-3.9c2.6,0,5.3,0,7.9,0
					c2.6,0,5.3,0,7.9,0l-15.8,30.3c-7.9,13.2-17.1,27.6-26.3,42.1c-9.2,14.5-18.4,28.9-28.9,42.1c-10.5,13.2-22.4,26.3-34.2,36.8
					c-11.8,11.8-25,21-39.5,28.9c-11.8,6.6-25,11.8-38.2,15.8c-13.2,3.9-27.6,6.6-40.8,6.6s-27.6-1.3-40.8-5.3s-25-11.8-34.2-21
					s-17.1-21-22.4-35.5c-5.3-14.5-9.2-28.9-10.5-44.7c-1.3-15.8-1.3-32.9,1.3-48.7c2.6-17.1,5.3-32.9,11.8-50
					c6.6-18.4,14.5-34.2,25-50c10.5-14.5,23.7-27.6,36.8-36.8c13.2-10.5,28.9-15.8,43.4-19.7c15.8-2.6,30.3-1.3,43.4,5.3
					c14.5,6.6,25,17.1,31.6,30.3c6.6,13.2,9.2,27.6,7.9,44.7c-1.3,15.8-5.3,32.9-11.8,50s-15.8,32.9-26.3,48.7
					c-10.5,14.5-22.4,27.6-35.5,38.2s-26.3,18.4-40.8,21c11.8,5.3,25,6.6,38.2,6.6s26.3-1.3,38.2-5.3c32.9-7.9,59.2-25,80.3-51.3
					c21-26.3,32.9-55.3,35.5-88.1c1.3-15.8,1.3-31.6-2.6-47.4c-3.9-15.8-10.5-30.3-18.4-42.1c-7.9-13.2-19.7-23.7-32.9-32.9
					s-27.6-14.5-44.7-18.4c-28.9-6.6-59.2-3.9-89.5,5.3c-30.3,10.5-56.6,23.7-78.9,42.1c-25,21-44.7,46-56.6,75
					c-13.2,28.9-19.7,57.9-18.4,89.5c0,30.3,6.6,60.5,21,89.5c13.2,28.9,34.2,53.9,61.8,73.7c22.4,17.1,46,27.6,71,34.2
					s51.3,6.6,78.9,3.9c34.2-5.3,65.8-15.8,93.4-32.9c27.6-17.1,53.9-38.2,76.3-63.1c19.7-21,38.2-43.4,53.9-67.1
					c17.1-23.7,31.6-48.7,46-73.7c14.5,3.9,30.3,7.9,44.7,11.8c14.5,3.9,30.3,5.3,46,5.3c28.9,0,57.9-3.9,86.8-11.8
					c28.9-9.2,55.3-21,81.6-36.8c25-15.8,47.4-34.2,67.1-56.6c19.7-22.4,35.5-47.4,47.4-75C2224.1,754.3,2229.4,714.8,2224.1,675.4z
					 M2117.6,680.6c-1.3,27.6-9.2,53.9-22.4,80.3c-13.2,26.3-30.3,50-50,71c-19.7,21-43.4,38.2-68.4,52.6
					c-25,13.2-51.3,21-77.6,23.7c-13.2,1.3-25,1.3-36.8,0c17.1-32.9,32.9-64.5,47.4-97.4c14.5-32.9,30.3-64.5,44.7-98.7
					c10.5-23.7,22.4-47.4,32.9-71c10.5-23.7,22.4-47.4,35.5-69.7c6.6-13.2,13.2-23.7,21-31.6h1.3c26.3,13.2,46,32.9,57.9,56.6
					C2114.9,622.7,2118.9,650.4,2117.6,680.6z"/>
				<path class="st1" d="M3306.9,721.4c-5.3-10.5-13.2-15.8-25-15.8c-6.6,0-17.1,0-31.6,1.3c-14.5,0-30.3,1.3-48.7,1.3
					c-18.4,0-36.8,1.3-56.6,1.3s-38.2,1.3-55.3,1.3s-32.9,0-46,0s-21-1.3-25-2.6c-6.6,19.7-7.9,35.5-5.3,50
					c2.6,14.5,13.2,26.3,31.6,36.8c7.9,5.3,18.4,7.9,28.9,7.9s22.4,0,34.2,0c11.8-1.3,23.7-2.6,36.8-3.9c11.8-1.3,23.7-2.6,34.2-2.6
					c-9.2,6.6-17.1,11.8-23.7,17.1c-6.6,5.3-14.5,11.8-22.4,18.4c-13.2,11.8-28.9,25-44.7,39.5c-15.8,14.5-31.6,28.9-48.7,42.1
					c-17.1,14.5-32.9,28.9-48.7,42.1s-31.6,26.3-46,36.8c-17.1,13.2-34.2,26.3-51.3,38.2c-11.8,7.9-25,15.8-36.8,22.4
					c-6.6-7.9-15.8-15.8-27.6-21c-14.5-7.9-31.6-11.8-50-14.5c-19.7-1.3-39.5-1.3-60.5,1.3s-42.1,5.3-64.5,9.2
					c-21,3.9-40.8,7.9-59.2,10.5c14.5-9.2,30.3-19.7,47.4-32.9c15.8-13.2,32.9-27.6,48.7-40.8c15.8-14.5,31.6-28.9,47.4-42.1
					c15.8-14.5,30.3-26.3,43.4-38.2c15.8-13.2,32.9-27.6,50-39.5c17.1-13.2,35.5-25,55.3-35.5c9.2-5.3,18.4-9.2,27.6-13.2
					c9.2-3.9,18.4-7.9,28.9-11.8c2.6-30.3,1.3-50-3.9-60.5c-5.3-10.5-13.2-15.8-25-15.8c-6.6,0-17.1,0-31.6,1.3
					c-14.5,0-30.3,1.3-48.7,1.3c-18.4,0-36.8,1.3-56.6,1.3s-38.2,1.3-55.3,1.3s-32.9,0-46,0s-21-1.3-25-2.6
					c-6.6,19.7-7.9,35.5-5.3,50c2.6,14.5,13.2,26.3,31.6,36.8c7.9,5.3,18.4,7.9,28.9,7.9s22.4,0,34.2,0c11.8-1.3,23.7-2.6,36.8-3.9
					c11.8-1.3,23.7-2.6,34.2-2.6c-9.2,6.6-17.1,11.8-23.7,17.1c-6.6,5.3-14.5,11.8-22.4,18.4c-13.2,11.8-28.9,25-44.7,39.5
					c-15.8,14.5-31.6,28.9-48.7,42.1c-17.1,14.5-32.9,28.9-48.7,42.1s-31.6,26.3-46,36.8c-14.5,11.8-30.3,23.7-46,34.2
					c9.2-9.2,17.1-19.7,26.3-30.3c22.4-27.6,40.8-53.9,53.9-81.6c-1.3-11.8-5.3-17.1-10.5-17.1c-5.3,0-11.8,1.3-18.4,2.6
					c-13.2,25-30.3,50-51.3,75c-19.7,25-42.1,46-68.4,63.1c-31.6,19.7-59.2,32.9-84.2,38.2s-46,3.9-61.8-3.9
					c-15.8-7.9-26.3-23.7-30.3-44.7s-1.3-48.7,9.2-82.9c6.6,1.3,13.2,1.3,19.7,2.6c6.6,0,13.2,0,19.7,0c28.9-1.3,57.9-9.2,86.8-21
					c26.3-10.5,50-25,72.4-43.4c22.4-18.4,39.5-40.8,48.7-68.4c3.9-11.8,6.6-22.4,6.6-34.2c0-11.8-1.3-22.4-5.3-31.6
					c-3.9-10.5-10.5-18.4-18.4-26.3c-7.9-7.9-18.4-13.2-31.6-15.8c-25-6.6-52.6-6.6-81.6,0s-55.3,15.8-76.3,27.6
					c-22.4,11.8-43.4,27.6-61.8,47.4c-19.7,19.7-35.5,40.8-50,64.5s-26.3,47.4-34.2,73.7c-9.2,25-13.2,51.3-14.5,76.3
					c-1.3,27.6,3.9,52.6,17.1,77.6c11.8,25,30.3,44.7,52.6,60.5c30.3,19.7,65.8,22.4,107.9,10.5c34.2-9.2,68.4-27.6,102.6-52.6
					c0,2.6,1.3,6.6,1.3,10.5c2.6,13.2,6.6,22.4,11.8,27.6s11.8,7.9,21,7.9c7.9,0,15.8,0,23.7-1.3s15.8-2.6,23.7-3.9
					c28.9-2.6,59.2-5.3,90.8-6.6s61.8-2.6,92.1-2.6s57.9,0,84.2,1.3c11.8,0,22.4,1.3,31.6,2.6c1.3,1.3,1.3,2.6,2.6,2.6
					c5.3,5.3,11.8,7.9,21,7.9c7.9,0,15.8,0,23.7-1.3s15.8-2.6,23.7-3.9c28.9-2.6,59.2-5.3,90.8-6.6c31.6-1.3,61.8-2.6,92.1-2.6
					s57.9,0,84.2,1.3s48.7,3.9,65.8,6.6c3.9-19.7,2.6-38.2-2.6-56.6c-5.3-17.1-18.4-32.9-40.8-44.7c-14.5-7.9-31.6-11.8-50-14.5
					c-19.7-1.3-39.5-1.3-60.5,1.3s-42.1,5.3-64.5,9.2c-21,3.9-40.8,7.9-59.2,10.5c14.5-9.2,30.3-19.7,47.4-32.9
					c15.8-13.2,32.9-27.6,48.7-40.8c15.8-14.5,31.6-28.9,47.4-42.1c15.8-14.5,30.3-26.3,43.4-38.2c15.8-13.2,32.9-27.6,50-39.5
					c17.1-13.2,35.5-25,55.3-35.5c9.2-5.3,18.4-9.2,27.6-13.2c9.2-3.9,18.4-7.9,28.9-11.8C3313.4,751.7,3312.1,731.9,3306.9,721.4z
					 M2351.7,839.8c18.4-25,38.2-46,60.5-65.8c3.9-2.6,9.2-6.6,15.8-11.8s14.5-9.2,22.4-11.8c7.9-2.6,14.5-3.9,21-2.6
					c6.6,1.3,9.2,6.6,9.2,15.8c1.3,17.1-3.9,32.9-13.2,47.4c-10.5,14.5-21,27.6-32.9,38.2c-13.2,13.2-28.9,25-46,34.2
					s-34.2,17.1-52.6,23.7c-11.8,3.9-21,7.9-30.3,10.5C2318.9,891.1,2333.3,864.8,2351.7,839.8z"/>
				<path class="st1" d="M3627.9,553c0-5.3-3.9-11.8-9.2-22.4c-5.3-10.5-17.1-18.4-34.2-23.7c-7.9-2.6-15.8-5.3-23.7-6.6
					c-7.9-1.3-15.8-1.3-25,0c-14.5,2.6-25,10.5-31.6,23.7c-5.3,13.2-9.2,27.6-11.8,40.8c-2.6,17.1,0,31.6,10.5,42.1
					c9.2,11.8,21,19.7,34.2,23.7c11.8,3.9,23.7,3.9,36.8,2.6c13.2-2.6,23.7-7.9,32.9-17.1c7.9-7.9,14.5-18.4,17.1-30.3
					C3627.9,576.7,3629.2,564.9,3627.9,553z"/>
				<path class="st1" d="M3573.9,901.6c-11.8,22.4-26.3,44.7-43.4,65.8c-17.1,21-34.2,40.8-53.9,57.9s-35.5,28.9-48.7,34.2
					c-13.2,5.3-22.4,6.6-28.9,2.6s-10.5-11.8-10.5-22.4c0-11.8,1.3-26.3,6.6-44.7c6.6-19.7,13.2-38.2,21-56.6
					c7.9-18.4,15.8-36.8,23.7-55.3c3.9-9.2,10.5-22.4,18.4-36.8c7.9-14.5,17.1-30.3,25-47.4c9.2-15.8,18.4-31.6,27.6-47.4
					c9.2-14.5,18.4-26.3,25-35.5c-5.3-6.6-13.2-11.8-21-15.8c-9.2-2.6-18.4-5.3-28.9-5.3c-10.5,0-19.7,1.3-28.9,3.9
					s-17.1,6.6-22.4,11.8c-17.1,13.2-31.6,30.3-44.7,50c-13.2,19.7-25,39.5-35.5,57.9c-18.4,31.6-32.9,65.8-44.7,102.6
					s-18.4,73.7-19.7,110.5c0,19.7,2.6,39.5,9.2,57.9s21,32.9,40.8,40.8c19.7,7.9,42.1,6.6,68.4-3.9c26.3-10.5,55.3-34.2,88.1-68.4
					c21-21,40.8-43.4,57.9-68.4c17.1-25,32.9-50,47.4-75C3600.2,899,3589.7,893.7,3573.9,901.6z"/>
			</g>
		</g>
		<g>
			<path class="st1" d="M830.9,1764.7c-2.6,0-5.3,0-6.6,0c-2.6,0-3.9-1.3-3.9-1.3c-5.3-2.6-9.2-5.3-11.8-10.5
				c-2.6-3.9-5.3-9.2-6.6-15.8c-1.3-5.3-1.3-11.8-1.3-18.4s1.3-13.2,1.3-19.7c1.3-6.6,2.6-13.2,3.9-19.7c1.3-6.6,3.9-11.8,5.3-17.1
				c3.9-11.8,7.9-22.4,13.2-34.2c3.9-11.8,9.2-22.4,14.5-32.9c1.3-3.9,3.9-9.2,7.9-17.1c3.9-6.6,6.6-14.5,10.5-21s6.6-13.2,9.2-19.7
				c2.6-5.3,3.9-9.2,5.3-10.5c1.3-2.6,2.6-5.3,3.9-6.6c1.3-2.6,1.3-5.3-2.6-6.6c-1.3-1.3-3.9-2.6-6.6-2.6c-2.6-1.3-5.3-1.3-9.2-1.3
				c-3.9,0-6.6,0-10.5,0s-6.6,1.3-10.5,2.6c-3.9,1.3-7.9,3.9-10.5,7.9c-3.9,3.9-6.6,6.6-9.2,9.2c-3.9,3.9-7.9,9.2-11.8,14.5
				c-3.9,5.3-7.9,9.2-10.5,14.5c-10.5,15.8-21,31.6-30.3,47.4s-19.7,31.6-30.3,47.4c-2.6,5.3-6.6,10.5-10.5,17.1
				s-7.9,11.8-11.8,17.1c1.3-2.6,2.6-5.3,5.3-9.2c1.3-3.9,3.9-7.9,6.6-13.2s3.9-9.2,6.6-14.5s3.9-10.5,6.6-14.5
				c5.3-11.8,10.5-25,15.8-38.2c5.3-13.2,10.5-25,14.5-36.8s7.9-21,10.5-28.9s3.9-13.2,3.9-14.5c0-2.6-2.6-5.3-5.3-6.6
				s-6.6-2.6-10.5-2.6c-5.3,0-9.2,0-14.5,1.3c-5.3,1.3-9.2,3.9-13.2,7.9c-9.2,7.9-18.4,17.1-25,27.6c-6.6,10.5-14.5,21-19.7,32.9
				c-7.9,14.5-15.8,27.6-23.7,42.1s-15.8,27.6-26.3,40.8c-5.3,6.6-10.5,14.5-15.8,21s-11.8,11.8-19.7,17.1
				c-3.9,2.6-7.9,3.9-11.8,6.6c-3.9,1.3-7.9,3.9-13.2,3.9c-3.9,1.3-9.2,1.3-13.2,1.3s-7.9-1.3-11.8-3.9c-5.3-2.6-9.2-6.6-13.2-11.8
				c-2.6-3.9-5.3-9.2-5.3-14.5c-1.3-5.3-1.3-10.5,0-17.1c0-5.3,1.3-11.8,3.9-17.1c1.3-5.3,3.9-10.5,6.6-15.8
				c2.6-5.3,6.6-10.5,9.2-14.5c3.9-3.9,7.9-7.9,13.2-11.8c5.3-3.9,10.5-5.3,15.8-6.6c5.3-1.3,10.5-1.3,15.8,1.3
				c5.3,1.3,7.9,5.3,9.2,11.8c1.3,5.3,1.3,11.8,0,17.1c-1.3,6.6-2.6,11.8-5.3,17.1c-3.9,10.5-10.5,18.4-19.7,25
				c-9.2,5.3-18.4,10.5-28.9,13.2c1.3,1.3,2.6,2.6,5.3,3.9c2.6,1.3,5.3,1.3,7.9,1.3c2.6,0,6.6,0,9.2,0s5.3,0,6.6,0
				c11.8-1.3,22.4-6.6,31.6-15.8s15.8-18.4,18.4-30.3c1.3-5.3,2.6-10.5,1.3-17.1c0-5.3-1.3-11.8-3.9-17.1s-5.3-9.2-9.2-14.5
				c-3.9-3.9-9.2-6.6-14.5-9.2c-5.3-1.3-10.5-2.6-15.8-1.3c-5.3,0-10.5,1.3-15.8,3.9c-5.3,1.3-10.5,3.9-15.8,7.9
				c-5.3,2.6-9.2,6.6-13.2,9.2c-9.2,7.9-17.1,15.8-23.7,26.3s-11.8,21-14.5,32.9c-1.3,6.6-2.6,11.8-1.3,18.4
				c0,6.6,1.3,11.8,2.6,18.4c1.3,5.3,3.9,10.5,7.9,15.8s7.9,9.2,13.2,13.2c7.9,5.3,15.8,7.9,23.7,9.2c9.2,1.3,17.1,0,26.3-3.9
				c5.3-2.6,10.5-5.3,15.8-7.9c5.3-3.9,10.5-6.6,14.5-10.5c5.3-3.9,9.2-7.9,13.2-11.8c3.9-3.9,9.2-7.9,13.2-13.2
				c7.9-7.9,14.5-15.8,21-25c6.6-9.2,13.2-18.4,18.4-27.6l18.4-30.3c5.3-9.2,11.8-18.4,17.1-28.9c5.3-9.2,11.8-19.7,18.4-28.9
				c-2.6,10.5-6.6,21-10.5,34.2c-3.9,11.8-9.2,25-14.5,36.8c-5.3,13.2-10.5,25-14.5,36.8c-5.3,11.8-10.5,22.4-14.5,32.9
				c-5.3,9.2-9.2,18.4-13.2,25c-3.9,6.6-6.6,10.5-9.2,13.2c3.9,3.9,7.9,5.3,11.8,6.6c5.3,1.3,9.2,1.3,14.5,0
				c5.3-1.3,9.2-2.6,13.2-5.3c3.9-2.6,7.9-5.3,10.5-7.9c3.9-5.3,7.9-10.5,11.8-15.8c3.9-5.3,7.9-11.8,10.5-17.1
				c9.2-14.5,17.1-27.6,26.3-42.1c9.2-13.2,17.1-27.6,26.3-40.8c2.6-5.3,6.6-11.8,10.5-18.4c3.9-6.6,9.2-13.2,13.2-19.7
				s7.9-11.8,11.8-17.1c3.9-5.3,7.9-7.9,10.5-10.5l-1.3,3.9c-5.3,10.5-9.2,19.7-14.5,30.3s-10.5,19.7-14.5,28.9
				c-7.9,14.5-14.5,28.9-21,43.4c-6.6,14.5-13.2,30.3-17.1,46c-1.3,6.6-3.9,14.5-3.9,21c-1.3,7.9-1.3,14.5,0,22.4
				c0,7.9,2.6,14.5,5.3,21s6.6,13.2,11.8,18.4s11.8,9.2,19.7,10.5c7.9,2.6,15.8,2.6,22.4,1.3c3.9,0,6.6-1.3,10.5-3.9
				c3.9-1.3,6.6-3.9,9.2-6.6s5.3-5.3,7.9-7.9c2.6-2.6,2.6-6.6,3.9-9.2c-2.6,1.3-3.9,2.6-6.6,3.9
				C838.8,1766,833.6,1763.3,830.9,1764.7z"/>
			<path class="st1" d="M1476.9,1547.6c-3.9,1.3-7.9,3.9-10.5,6.6c-2.6,2.6-5.3,6.6-7.9,10.5c-3.9,5.3-7.9,10.5-11.8,15.8
				c-3.9,5.3-7.9,11.8-13.2,17.1c-3.9,5.3-9.2,11.8-13.2,17.1s-9.2,11.8-13.2,17.1c-6.6,0-14.5,1.3-21,5.3
				c-6.6,3.9-11.8,7.9-17.1,13.2s-7.9,11.8-10.5,18.4c-2.6,6.6-2.6,13.2-2.6,19.7c0,0-1.3,0-1.3,1.3c-1.3,1.3-3.9,1.3-5.3,2.6
				c-1.3,0-3.9,1.3-5.3,1.3s-2.6,0-3.9-1.3c-1.3-2.6,0-7.9,2.6-15.8c2.6-7.9,7.9-18.4,13.2-28.9c2.6-5.3,5.3-11.8,9.2-18.4
				c3.9-6.6,6.6-11.8,10.5-18.4c3.9-5.3,6.6-11.8,10.5-15.8c2.6-5.3,6.6-9.2,7.9-11.8c-2.6-2.6-6.6-3.9-10.5-3.9s-7.9,0-11.8,1.3
				s-6.6,2.6-10.5,5.3c-2.6,2.6-6.6,5.3-9.2,7.9c-2.6-6.6-6.6-13.2-13.2-17.1c-5.3-3.9-13.2-6.6-21-6.6s-15.8,1.3-23.7,3.9
				c-7.9,3.9-14.5,7.9-19.7,13.2c-6.6,5.3-11.8,11.8-17.1,18.4s-10.5,13.2-14.5,21c-2.6,5.3-5.3,9.2-6.6,14.5
				c-1.3,2.6-3.9,6.6-5.3,9.2c-2.6,2.6-5.3,5.3-9.2,7.9c-3.9,2.6-6.6,3.9-10.5,5.3s-7.9,1.3-13.2,0c2.6-7.9,3.9-17.1,5.3-25
				c1.3-9.2,2.6-17.1,3.9-26.3c1.3-9.2,2.6-17.1,3.9-25c1.3-7.9,2.6-15.8,5.3-22.4c2.6-6.6,5.3-11.8,7.9-15.8
				c-3.9-1.3-7.9-2.6-11.8-2.6c-3.9,0-7.9,0-11.8,1.3s-6.6,2.6-9.2,3.9c-2.6,1.3-5.3,3.9-6.6,6.6s-3.9,5.3-5.3,7.9
				c-3.9,5.3-7.9,10.5-11.8,15.8c-3.9,5.3-9.2,11.8-13.2,18.4c-5.3,6.6-9.2,11.8-14.5,18.4c-5.3,6.6-9.2,11.8-13.2,17.1
				c-9.2,0-17.1,2.6-25,6.6c-3.9,2.6-7.9,5.3-10.5,9.2c-2.6,3.9-6.6,7.9-7.9,11.8l0,0c-1.3,0-2.6,0-3.9,0c2.6-7.9,3.9-17.1,5.3-25
				c1.3-9.2,2.6-17.1,3.9-26.3c1.3-9.2,2.6-17.1,3.9-25c1.3-7.9,2.6-15.8,5.3-22.4c2.6-6.6,5.3-11.8,7.9-15.8
				c-3.9-1.3-7.9-2.6-11.8-2.6s-7.9,0-11.8,1.3s-6.6,2.6-9.2,3.9c-2.6,1.3-5.3,3.9-6.6,6.6s-3.9,5.3-5.3,7.9
				c-3.9,5.3-7.9,10.5-11.8,15.8c-3.9,5.3-9.2,11.8-13.2,18.4c-5.3,6.6-9.2,11.8-14.5,18.4s-9.2,11.8-13.2,17.1
				c-9.2,0-17.1,2.6-25,6.6c-3.9,2.6-7.9,5.3-10.5,9.2s-6.6,7.9-7.9,11.8c-1.3,3.9-3.9,9.2-3.9,13.2c-1.3,3.9-1.3,7.9,0,13.2
				c0,0-1.3,0-1.3,1.3c-1.3,1.3-3.9,1.3-5.3,2.6c-1.3,0-3.9,1.3-5.3,1.3c-1.3,0-2.6,0-3.9-1.3c-1.3-2.6,0-7.9,2.6-15.8
				s7.9-18.4,13.2-28.9c2.6-5.3,5.3-11.8,9.2-18.4c3.9-6.6,6.6-11.8,10.5-18.4c3.9-5.3,6.6-11.8,10.5-15.8c2.6-5.3,6.6-9.2,7.9-11.8
				c-2.6-2.6-6.6-3.9-10.5-3.9s-7.9,0-11.8,1.3s-6.6,2.6-10.5,5.3c-2.6,2.6-6.6,5.3-9.2,7.9c-2.6-6.6-6.6-13.2-13.2-17.1
				c-5.3-3.9-13.2-6.6-21-6.6c-7.9,0-15.8,1.3-23.7,3.9c-7.9,3.9-14.5,7.9-19.7,13.2c-6.6,5.3-11.8,11.8-17.1,18.4
				s-10.5,13.2-14.5,21c-3.9,7.9-7.9,15.8-10.5,23.7c-2.6,7.9-3.9,15.8-3.9,25c0,6.6,1.3,13.2,2.6,19.7c1.3,6.6,5.3,11.8,10.5,17.1
				c5.3,5.3,11.8,7.9,19.7,7.9s14.5-1.3,21-5.3c5.3-2.6,9.2-6.6,13.2-10.5s7.9-7.9,10.5-13.2c0,2.6,1.3,6.6,2.6,7.9
				c2.6,5.3,5.3,9.2,10.5,13.2c3.9,3.9,9.2,5.3,15.8,5.3c5.3,0,10.5-1.3,15.8-3.9c3.9-2.6,6.6-5.3,9.2-7.9c2.6,2.6,3.9,5.3,7.9,7.9
				c7.9,5.3,15.8,7.9,25,7.9c9.2,0,19.7-1.3,28.9-3.9c9.2-3.9,18.4-7.9,25-13.2c6.6-5.3,13.2-13.2,18.4-21c2.6,0,5.3,0,7.9,0
				c0,2.6,0,3.9,0,6.6c1.3,11.8,6.6,19.7,14.5,23.7c7.9,5.3,15.8,7.9,25,7.9s19.7-1.3,28.9-3.9c9.2-3.9,18.4-7.9,25-13.2
				c6.6-5.3,13.2-13.2,18.4-21c5.3,0,10.5,0,14.5-1.3c5.3-1.3,9.2-2.6,14.5-5.3c5.3-2.6,9.2-5.3,11.8-9.2c0,1.3,0,3.9,0,5.3
				c0,6.6,1.3,13.2,2.6,19.7s5.3,11.8,10.5,17.1c5.3,5.3,11.8,7.9,19.7,7.9c7.9,0,14.5-1.3,21-5.3c5.3-2.6,9.2-6.6,13.2-10.5
				s7.9-7.9,10.5-13.2c0,2.6,1.3,6.6,2.6,7.9c2.6,5.3,5.3,9.2,10.5,13.2c3.9,3.9,9.2,5.3,15.8,5.3c5.3,0,10.5-1.3,15.8-3.9
				c3.9-2.6,6.6-5.3,9.2-7.9c2.6,2.6,3.9,5.3,7.9,7.9c7.9,5.3,15.8,7.9,25,7.9c9.2,0,19.7-1.3,28.9-3.9c9.2-3.9,18.4-7.9,25-13.2
				c5.3-5.3,10.5-10.5,15.8-17.1c5.3-6.6,7.9-14.5,10.5-22.4c2.6-7.9,5.3-17.1,6.6-26.3c1.3-9.2,2.6-18.4,3.9-27.6
				c1.3-9.2,2.6-17.1,3.9-26.3c1.3-7.9,2.6-15.8,5.3-23.7c2.6-6.6,5.3-11.8,7.9-15.8c-3.9-1.3-9.2-2.6-13.2-2.6
				C1486.1,1545,1480.8,1546.3,1476.9,1547.6z M938.8,1609.4c-2.6,11.8-6.6,22.4-14.5,32.9s-15.8,18.4-25,26.3
				c1.3,1.3,3.9,2.6,6.6,2.6s6.6,0,9.2-1.3c-3.9,3.9-7.9,6.6-10.5,10.5c-3.9,3.9-7.9,6.6-11.8,7.9c-6.6,3.9-11.8,3.9-15.8,0
				c-3.9-3.9-3.9-11.8-1.3-23.7c2.6-11.8,6.6-23.7,13.2-35.5c5.3-11.8,13.2-21,22.4-30.3c2.6-2.6,6.6-5.3,9.2-7.9
				c3.9-2.6,7.9-2.6,11.8-2.6c5.3,1.3,7.9,3.9,9.2,7.9C940.1,1600.2,940.1,1604.2,938.8,1609.4z M1029.6,1687
				c-3.9,5.3-9.2,10.5-14.5,13.2s-10.5,3.9-15.8,3.9c-5.3,0-9.2-1.3-13.2-5.3c-2.6-1.3-3.9-3.9-5.3-7.9c0,0,0,0,1.3-1.3
				c3.9-3.9,6.6-9.2,10.5-14.5c2.6-3.9,5.3-9.2,7.9-13.2h1.3c3.9,0,6.6,1.3,10.5,2.6s6.6,2.6,9.2,3.9c5.3,2.6,10.5,5.3,15.8,6.6
				C1034.9,1680.5,1032.2,1684.4,1029.6,1687z M1050.6,1621.3c0,7.9-1.3,15.8-3.9,23.7l-11.8-5.3c-3.9-1.3-7.9-2.6-11.8-3.9
				c5.3-6.6,10.5-13.2,15.8-19.7c5.3-6.6,10.5-13.2,14.5-19.7C1052,1605.5,1050.6,1613.4,1050.6,1621.3z M1150.6,1687
				c-3.9,5.3-9.2,10.5-14.5,13.2s-10.5,3.9-15.8,3.9s-9.2-1.3-13.2-5.3c-3.9-2.6-6.6-7.9-6.6-13.2c0-2.6,0-5.3,0-7.9c0,0,0,0,1.3,0
				c7.9-3.9,13.2-7.9,17.1-14.5l0,0c1.3,0,2.6,0,3.9,0c3.9,0,6.6,1.3,10.5,2.6s6.6,2.6,9.2,3.9c5.3,2.6,10.5,5.3,15.8,6.6
				C1154.6,1680.5,1153.3,1684.4,1150.6,1687z M1171.7,1621.3c0,7.9-1.3,15.8-3.9,23.7l-11.8-5.3c-3.9-1.3-7.9-2.6-11.8-3.9
				c5.3-6.6,10.5-13.2,15.8-19.7c5.3-6.6,10.5-13.2,14.5-19.7C1173,1605.5,1171.7,1613.4,1171.7,1621.3z M1337.4,1609.4
				c-2.6,11.8-6.6,22.4-14.5,32.9s-15.8,18.4-25,26.3c1.3,1.3,3.9,2.6,6.6,2.6s6.6,0,9.2-1.3c-3.9,3.9-7.9,6.6-10.5,10.5
				c-3.9,3.9-7.9,6.6-11.8,7.9c-6.6,3.9-11.8,3.9-15.8,0c-3.9-3.9-3.9-11.8-1.3-23.7c2.6-11.8,6.6-23.7,13.2-35.5
				c5.3-11.8,13.2-21,22.4-30.3c2.6-2.6,6.6-5.3,9.2-7.9c3.9-2.6,7.9-2.6,11.8-2.6c5.3,1.3,7.9,3.9,9.2,7.9
				C1337.4,1600.2,1337.4,1604.2,1337.4,1609.4z M1445.3,1630.5c-1.3,10.5-2.6,21-6.6,31.6c-1.3,5.3-5.3,11.8-7.9,17.1
				c-3.9,5.3-7.9,10.5-11.8,14.5c-5.3,3.9-9.2,6.6-15.8,9.2c-5.3,1.3-10.5,1.3-17.1,0c-2.6-1.3-5.3-2.6-7.9-5.3
				c-1.3-1.3-1.3-2.6-2.6-3.9c0-1.3,1.3-1.3,1.3-1.3c3.9-3.9,6.6-9.2,10.5-14.5c2.6-3.9,5.3-7.9,7.9-13.2c1.3,0,2.6,0,2.6,0
				c6.6,0,13.2,2.6,18.4,7.9c2.6-2.6,5.3-5.3,7.9-9.2c1.3-3.9,2.6-6.6,3.9-10.5c0-2.6,0-6.6-1.3-9.2s-3.9-5.3-6.6-7.9
				c5.3-6.6,9.2-11.8,14.5-18.4s9.2-13.2,14.5-18.4C1447.9,1609.4,1446.6,1619.9,1445.3,1630.5z"/>
			<path class="st1" d="M2367.5,1764.7c-2.6,0-5.3,0-6.6,0c-2.6,0-3.9-1.3-3.9-1.3c-5.3-2.6-9.2-5.3-11.8-10.5
				c-2.6-3.9-5.3-9.2-6.6-15.8c-1.3-5.3-1.3-11.8-1.3-18.4s1.3-13.2,1.3-19.7c1.3-6.6,2.6-13.2,3.9-19.7s3.9-11.8,5.3-17.1
				c3.9-11.8,7.9-22.4,13.2-34.2s9.2-22.4,14.5-32.9c1.3-3.9,3.9-9.2,7.9-17.1c3.9-6.6,6.6-14.5,10.5-21s6.6-13.2,9.2-19.7
				c2.6-5.3,3.9-9.2,5.3-10.5c1.3-2.6,2.6-5.3,3.9-6.6c1.3-2.6,1.3-5.3-2.6-6.6c-1.3-1.3-3.9-2.6-6.6-2.6c-2.6-1.3-5.3-1.3-9.2-1.3
				s-6.6,0-10.5,0s-6.6,1.3-10.5,2.6s-7.9,3.9-10.5,7.9c-3.9,3.9-6.6,6.6-9.2,9.2c-3.9,3.9-7.9,9.2-11.8,14.5s-7.9,9.2-10.5,14.5
				c-10.5,15.8-21,31.6-30.3,47.4s-19.7,31.6-30.3,47.4c-2.6,5.3-6.6,10.5-10.5,17.1s-7.9,11.8-11.8,17.1c1.3-2.6,2.6-5.3,5.3-9.2
				c1.3-3.9,3.9-7.9,6.6-13.2s3.9-9.2,6.6-14.5s3.9-10.5,6.6-14.5c5.3-11.8,10.5-25,15.8-38.2c5.3-13.2,10.5-25,14.5-36.8
				s7.9-21,10.5-28.9s3.9-13.2,3.9-14.5c0-2.6-2.6-5.3-5.3-6.6s-6.6-2.6-10.5-2.6s-9.2,0-14.5,1.3c-5.3,1.3-9.2,3.9-13.2,7.9
				c-9.2,7.9-18.4,17.1-25,27.6c-6.6,10.5-14.5,21-19.7,32.9c-7.9,14.5-15.8,27.6-23.7,42.1s-15.8,27.6-26.3,40.8
				c-5.3,6.6-10.5,14.5-15.8,21c-5.3,6.6-11.8,11.8-19.7,17.1c-3.9,2.6-7.9,3.9-11.8,6.6c-3.9,1.3-7.9,3.9-13.2,3.9
				c-3.9,1.3-9.2,1.3-13.2,1.3s-7.9-1.3-11.8-3.9c-5.3-2.6-9.2-6.6-13.2-11.8c-2.6-3.9-5.3-9.2-5.3-14.5s-1.3-10.5,0-17.1
				c0-5.3,1.3-11.8,3.9-17.1c1.3-5.3,3.9-10.5,6.6-15.8c2.6-5.3,6.6-10.5,9.2-14.5c3.9-3.9,7.9-7.9,13.2-11.8
				c5.3-3.9,10.5-5.3,15.8-6.6c5.3-1.3,10.5-1.3,15.8,1.3c5.3,1.3,7.9,5.3,9.2,11.8c1.3,5.3,1.3,11.8,0,17.1
				c-1.3,6.6-2.6,11.8-5.3,17.1c-3.9,10.5-10.5,18.4-19.7,25c-9.2,5.3-18.4,10.5-28.9,13.2c1.3,1.3,2.6,2.6,5.3,3.9
				c2.6,1.3,5.3,1.3,7.9,1.3c2.6,0,6.6,0,9.2,0s5.3,0,6.6,0c11.8-1.3,22.4-6.6,31.6-15.8s15.8-18.4,18.4-30.3
				c1.3-5.3,2.6-10.5,1.3-17.1c0-5.3-1.3-11.8-3.9-17.1s-5.3-9.2-9.2-14.5c-3.9-3.9-9.2-6.6-14.5-9.2c-5.3-1.3-10.5-2.6-15.8-1.3
				c-5.3,0-10.5,1.3-15.8,3.9c-5.3,1.3-10.5,3.9-15.8,7.9c-5.3,2.6-9.2,6.6-13.2,9.2c-9.2,7.9-17.1,15.8-23.7,26.3
				s-11.8,21-14.5,32.9c-1.3,6.6-2.6,11.8-1.3,18.4c0,6.6,1.3,11.8,2.6,18.4c1.3,5.3,3.9,10.5,7.9,15.8s7.9,9.2,13.2,13.2
				c7.9,5.3,15.8,7.9,23.7,9.2c9.2,1.3,17.1,0,26.3-3.9c5.3-2.6,10.5-5.3,15.8-7.9c5.3-3.9,10.5-6.6,14.5-10.5
				c5.3-3.9,9.2-7.9,13.2-11.8c3.9-3.9,9.2-7.9,13.2-13.2c7.9-7.9,14.5-15.8,21-25c6.6-9.2,13.2-18.4,18.4-27.6l18.4-30.3
				c5.3-9.2,11.8-18.4,17.1-28.9c5.3-9.2,11.8-19.7,18.4-28.9c-2.6,10.5-6.6,21-10.5,34.2c-3.9,11.8-9.2,25-14.5,36.8
				c-5.3,13.2-10.5,25-14.5,36.8s-10.5,22.4-14.5,32.9s-9.2,18.4-13.2,25c-3.9,6.6-6.6,10.5-9.2,13.2c3.9,3.9,7.9,5.3,11.8,6.6
				c5.3,1.3,9.2,1.3,14.5,0c5.3-1.3,9.2-2.6,13.2-5.3c3.9-2.6,7.9-5.3,10.5-7.9c3.9-5.3,7.9-10.5,11.8-15.8
				c3.9-5.3,7.9-11.8,10.5-17.1c9.2-14.5,17.1-27.6,26.3-42.1c9.2-13.2,17.1-27.6,26.3-40.8c2.6-5.3,6.6-11.8,10.5-18.4
				c3.9-6.6,9.2-13.2,13.2-19.7s7.9-11.8,11.8-17.1c3.9-5.3,7.9-7.9,10.5-10.5l-1.3,3.9c-5.3,10.5-9.2,19.7-14.5,30.3
				c-5.3,9.2-10.5,19.7-14.5,28.9c-7.9,14.5-14.5,28.9-21,43.4c-6.6,14.5-13.2,30.3-17.1,46c-1.3,6.6-3.9,14.5-3.9,21
				c-1.3,7.9-1.3,14.5,0,22.4c0,7.9,2.6,14.5,5.3,21s6.6,13.2,11.8,18.4s11.8,9.2,19.7,10.5c7.9,2.6,15.8,2.6,22.4,1.3
				c3.9,0,6.6-1.3,10.5-3.9c3.9-1.3,6.6-3.9,9.2-6.6s5.3-5.3,7.9-7.9c2.6-2.6,2.6-6.6,3.9-9.2c-2.6,1.3-3.9,2.6-6.6,3.9
				C2372.8,1763.3,2370.2,1763.3,2367.5,1764.7z"/>
			<path class="st1" d="M3033.2,1545c-3.9,0-9.2,1.3-13.2,2.6s-7.9,3.9-10.5,6.6s-5.3,6.6-7.9,10.5c-3.9,5.3-7.9,10.5-11.8,15.8
				c-3.9,5.3-7.9,11.8-13.2,17.1c-3.9,5.3-9.2,11.8-13.2,17.1s-9.2,11.8-13.2,17.1c-6.6,0-14.5,1.3-21,5.3s-11.8,7.9-17.1,13.2
				c-2.6,3.9-5.3,7.9-7.9,11.8h-1.3c3.9-9.2,6.6-18.4,9.2-27.6c1.3-9.2,1.3-19.7,0-28.9c-1.3-5.3-3.9-10.5-7.9-15.8
				c-3.9-5.3-9.2-7.9-14.5-9.2c-3.9,0-7.9,0-10.5,0h-1.3c-3.9-1.3-6.6-2.6-10.5-3.9c-3.9,0-7.9,0-11.8,0c-6.6,0-14.5,2.6-19.7,6.6
				c-6.6,3.9-11.8,7.9-17.1,11.8c-5.3,5.3-10.5,10.5-14.5,17.1s-7.9,13.2-10.5,19.7c-1.3,3.9-2.6,6.6-3.9,10.5
				c-5.3,9.2-11.8,19.7-19.7,28.9c-7.9,9.2-17.1,17.1-25,23.7c-3.9,2.6-7.9,3.9-10.5,5.3c-2.6,0-5.3,0-7.9-2.6
				c-1.3-1.3-2.6-5.3-2.6-9.2s1.3-9.2,3.9-14.5c1.3-3.9,3.9-7.9,7.9-14.5c2.6-5.3,6.6-11.8,10.5-18.4s7.9-13.2,11.8-19.7
				c3.9-6.6,7.9-13.2,10.5-18.4s5.3-10.5,7.9-13.2c2.6-3.9,2.6-5.3,2.6-6.6c0-2.6-1.3-3.9-2.6-6.6s-3.9-3.9-6.6-5.3
				s-5.3-2.6-9.2-2.6c-2.6,0-6.6,0-10.5,0c-1.3,0-3.9,1.3-6.6,2.6s-5.3,2.6-7.9,5.3c-2.6,2.6-5.3,3.9-7.9,6.6
				c-2.6,2.6-5.3,3.9-6.6,5.3c-6.6,6.6-14.5,13.2-21,19.7s-13.2,13.2-19.7,19.7c-3.9,3.9-6.6,6.6-10.5,10.5s-6.6,6.6-9.2,10.5
				c13.2-21,25-42.1,38.2-63.1c11.8-21,25-40.8,36.8-59.2c3.9-6.6,7.9-11.8,11.8-15.8c3.9-3.9,6.6-7.9,7.9-9.2
				c-2.6-1.3-6.6-2.6-10.5-3.9c-3.9-1.3-7.9-1.3-13.2-1.3c-3.9,0-9.2,1.3-13.2,3.9c-5.3,2.6-9.2,5.3-13.2,10.5
				c-2.6,2.6-5.3,6.6-9.2,13.2s-7.9,13.2-11.8,19.7c-3.9,6.6-7.9,13.2-11.8,19.7c-3.9,6.6-5.3,10.5-6.6,11.8
				c-6.6,11.8-13.2,23.7-21,36.8c-6.6,11.8-13.2,23.7-21,36.8c-1.3,2.6-3.9,6.6-5.3,10.5l0,0c-3.9,6.6-9.2,11.8-14.5,17.1
				c-5.3,5.3-9.2,9.2-14.5,14.5c-5.3,3.9-9.2,7.9-13.2,9.2c-7.9,3.9-13.2,5.3-17.1,5.3c-3.9-1.3-6.6-3.9-7.9-6.6
				c-1.3-3.9-1.3-7.9-1.3-13.2c0-5.3,1.3-10.5,2.6-14.5c1.3-2.6,2.6-5.3,2.6-7.9c1.3-2.6,1.3-5.3,2.6-7.9c1.3,0,1.3-1.3,2.6-1.3
				c0-1.3,1.3-1.3,1.3-1.3c2.6-1.3,3.9-3.9,6.6-5.3s3.9-3.9,6.6-5.3c7.9-6.6,14.5-13.2,22.4-19.7s13.2-14.5,19.7-21
				c5.3-6.6,10.5-13.2,15.8-19.7c5.3-6.6,9.2-13.2,14.5-21c3.9-6.6,7.9-13.2,10.5-19.7c3.9-6.6,5.3-14.5,5.3-21c0-2.6,0-3.9,0-6.6
				s-1.3-5.3-2.6-6.6c-1.3-1.3-2.6-2.6-5.3-2.6c-2.6-1.3-3.9,0-6.6,1.3c-1.3,0-3.9-1.3-5.3-1.3c-3.9,0-7.9,1.3-11.8,2.6
				c-3.9,1.3-7.9,3.9-10.5,5.3c-5.3,2.6-10.5,6.6-14.5,10.5s-9.2,7.9-13.2,11.8c-10.5,10.5-19.7,22.4-27.6,35.5s-15.8,25-23.7,38.2
				c-3.9,5.3-6.6,11.8-10.5,18.4c-3.9,6.6-6.6,13.2-9.2,19.7c0,1.3,0,2.6-1.3,2.6c-3.9,7.9-9.2,14.5-15.8,18.4s-13.2,5.3-19.7,2.6
				c3.9-9.2,6.6-18.4,9.2-27.6c1.3-9.2,1.3-19.7,0-28.9c-1.3-5.3-3.9-10.5-7.9-15.8c-3.9-5.3-9.2-7.9-14.5-9.2c-3.9,0-7.9,0-10.5,0
				h-1.3c-3.9-1.3-6.6-2.6-10.5-3.9c-3.9,0-7.9,0-11.8,0c-6.6,0-14.5,2.6-19.7,6.6c-6.6,3.9-11.8,7.9-17.1,11.8
				c-5.3,5.3-10.5,10.5-14.5,17.1s-7.9,13.2-10.5,19.7s-5.3,14.5-6.6,22.4s-1.3,14.5-1.3,22.4c0,6.6,2.6,13.2,5.3,18.4
				s5.3,10.5,10.5,15.8c3.9,3.9,9.2,7.9,14.5,10.5c5.3,2.6,11.8,3.9,18.4,2.6c5.3,0,10.5-1.3,15.8-3.9s10.5-5.3,14.5-7.9
				c3.9-3.9,7.9-6.6,11.8-11.8c3.9-3.9,7.9-9.2,10.5-13.2c14.5-1.3,26.3-5.3,36.8-11.8c2.6-1.3,3.9-3.9,6.6-5.3
				c0,3.9-1.3,6.6-1.3,10.5c0,10.5,1.3,19.7,5.3,27.6c3.9,6.6,9.2,11.8,15.8,14.5c6.6,2.6,13.2,3.9,21,2.6s15.8-3.9,23.7-9.2
				c6.6-3.9,13.2-9.2,19.7-14.5l1.3-1.3c0,0,0,0,0,1.3c-1.3,5.3-2.6,9.2-1.3,11.8c0,1.3,1.3,2.6,1.3,3.9c1.3,1.3,1.3,3.9,3.9,5.3
				c1.3,1.3,2.6,2.6,5.3,3.9c1.3,1.3,3.9,1.3,6.6,1.3c9.2-13.2,18.4-26.3,28.9-39.5s21-23.7,30.3-34.2c9.2-10.5,18.4-19.7,26.3-27.6
				c7.9-7.9,13.2-13.2,17.1-15.8c1.3-1.3,2.6-2.6,3.9-3.9c1.3-1.3,2.6-2.6,3.9-3.9c-6.6,10.5-13.2,21-19.7,32.9
				c-6.6,10.5-11.8,22.4-15.8,34.2c-1.3,3.9-2.6,9.2-3.9,14.5c-1.3,5.3-1.3,10.5,0,14.5c1.3,5.3,2.6,9.2,5.3,13.2s6.6,6.6,11.8,9.2
				c2.6,1.3,5.3,1.3,9.2,1.3c2.6,0,6.6,0,10.5,0s6.6-1.3,9.2-2.6c2.6-1.3,5.3-2.6,7.9-3.9c10.5-7.9,21-18.4,30.3-30.3
				c3.9-5.3,6.6-9.2,10.5-14.5c0,1.3,0,3.9,0,5.3c0,6.6,2.6,13.2,5.3,18.4c2.6,5.3,5.3,10.5,10.5,15.8c3.9,3.9,9.2,7.9,14.5,10.5
				c5.3,2.6,11.8,3.9,18.4,2.6c5.3,0,10.5-1.3,15.8-3.9s10.5-5.3,14.5-7.9c3.9-3.9,7.9-6.6,11.8-11.8c3.9-3.9,7.9-9.2,10.5-13.2
				c3.9,0,7.9-1.3,11.8-1.3c0,1.3,0,3.9,0,5.3c1.3,11.8,6.6,19.7,14.5,23.7c7.9,5.3,15.8,7.9,25,7.9s19.7-1.3,28.9-3.9
				c9.2-2.6,18.4-7.9,25-13.2c5.3-5.3,10.5-10.5,15.8-17.1c5.3-6.6,7.9-14.5,10.5-22.4c2.6-7.9,5.3-17.1,6.6-26.3
				c1.3-9.2,2.6-18.4,3.9-27.6c1.3-9.2,2.6-17.1,3.9-26.3c1.3-7.9,2.6-15.8,5.3-23.7c2.6-6.6,5.3-11.8,7.9-15.8
				C3042.4,1546.3,3037.2,1545,3033.2,1545z M2585.9,1604.2c6.6-10.5,13.2-22.4,19.7-32.9s14.5-21,22.4-31.6
				c3.9-3.9,7.9-7.9,10.5-11.8c3.9-3.9,7.9-6.6,11.8-10.5c-1.3,6.6-3.9,11.8-6.6,17.1s-6.6,10.5-9.2,15.8c-5.3,7.9-9.2,14.5-14.5,21
				c-5.3,6.6-10.5,14.5-15.8,21c-3.9,5.3-9.2,10.5-13.2,14.5c-3.9,5.3-9.2,9.2-14.5,14.5L2585.9,1604.2z M2479.4,1646.3
				c-1.3-1.3-2.6-2.6-3.9-3.9c-3.9-1.3-6.6-1.3-10.5,0s-7.9,3.9-11.8,7.9c-3.9,3.9-6.6,6.6-7.9,10.5s-1.3,7.9,0,11.8
				c1.3,2.6,2.6,5.3,5.3,6.6s5.3,2.6,7.9,3.9c-6.6,7.9-13.2,11.8-19.7,14.5s-13.2,2.6-18.4,0c-3.9-2.6-7.9-5.3-9.2-10.5
				c-1.3-5.3-2.6-10.5-2.6-17.1s1.3-13.2,3.9-19.7c2.6-6.6,5.3-14.5,7.9-21c3.9-6.6,7.9-13.2,11.8-18.4s9.2-9.2,14.5-11.8
				c2.6-1.3,6.6-2.6,9.2-3.9c3.9-1.3,6.6-1.3,10.5-1.3c2.6,2.6,5.3,3.9,7.9,6.6c2.6,2.6,3.9,5.3,3.9,9.2c1.3,6.6,2.6,11.8,1.3,18.4
				C2482,1634.4,2480.7,1641,2479.4,1646.3z M2889.8,1646.3c-1.3-1.3-2.6-2.6-3.9-3.9c-3.9-1.3-6.6-1.3-10.5,0s-7.9,3.9-11.8,7.9
				c-3.9,3.9-6.6,6.6-7.9,10.5s-1.3,7.9,0,11.8c1.3,2.6,2.6,5.3,5.3,6.6s5.3,2.6,7.9,3.9c-6.6,7.9-13.2,11.8-19.7,14.5
				s-13.2,2.6-18.4,0c-3.9-2.6-7.9-5.3-9.2-10.5c-1.3-5.3-2.6-10.5-2.6-17.1s1.3-13.2,3.9-19.7s5.3-14.5,7.9-21
				c3.9-6.6,7.9-13.2,11.8-18.4c3.9-5.3,9.2-9.2,14.5-11.8c2.6-1.3,6.6-2.6,9.2-3.9c3.9-1.3,6.6-1.3,10.5-1.3
				c2.6,2.6,5.3,3.9,7.9,6.6s3.9,5.3,3.9,9.2c1.3,6.6,2.6,11.8,1.3,18.4C2893.8,1634.4,2892.4,1641,2889.8,1646.3z M2988.5,1630.5
				c-1.3,10.5-2.6,21-6.6,31.6c-1.3,5.3-5.3,11.8-7.9,17.1c-3.9,5.3-7.9,10.5-11.8,14.5c-5.3,3.9-9.2,6.6-15.8,9.2
				c-5.3,1.3-10.5,1.3-17.1,0c-2.6-1.3-5.3-2.6-7.9-5.3c-1.3-2.6-2.6-5.3-3.9-7.9c0-2.6,0-6.6,1.3-9.2c0,0,0-1.3,1.3-1.3
				c1.3-1.3,3.9-1.3,5.3-2.6c3.9-2.6,7.9-6.6,11.8-10.5c2.6,0,3.9-1.3,6.6-1.3c6.6,0,13.2,2.6,18.4,7.9c2.6-2.6,5.3-5.3,7.9-9.2
				c1.3-3.9,2.6-6.6,3.9-10.5c0-2.6,0-6.6-1.3-9.2s-3.9-5.3-6.6-7.9c5.3-6.6,9.2-11.8,14.5-18.4c5.3-6.6,9.2-13.2,14.5-18.4
				C2989.8,1609.4,2988.5,1619.9,2988.5,1630.5z"/>
		</g>
		<g>
			<path class="st0" d="M1870.2,1826.5c9.2-14.5,15.8-28.9,21-43.4c3.9-14.5,2.6-30.3-3.9-47.4c-2.6-6.6-6.6-13.2-10.5-18.4
				c-3.9-5.3-7.9-11.8-13.2-17.1l-38.2,52.6c-10.5,13.2-21,26.3-34.2,39.5s-27.6,22.4-42.1,30.3c-15.8,7.9-31.6,13.2-48.7,14.5
				s-35.5-2.6-53.9-10.5c-9.2-3.9-15.8-10.5-22.4-17.1c-6.6-7.9-11.8-15.8-15.8-25c-3.9-9.2-7.9-18.4-9.2-28.9s-2.6-19.7-2.6-28.9
				c0-19.7,3.9-38.2,13.2-56.6s21-32.9,35.5-44.7c14.5-13.2,31.6-22.4,50-28.9c18.4-6.6,36.8-13.2,56.6-18.4
				c-9.2-17.1-15.8-34.2-19.7-52.6c-2.6-18.4-1.3-36.8,5.3-56.6c6.6-18.4,17.1-32.9,31.6-44.7c14.5-11.8,30.3-19.7,48.7-25
				c7.9-1.3,15.8-2.6,25-3.9c9.2,0,17.1,0,25,1.3c7.9,1.3,17.1,3.9,25,7.9c7.9,3.9,14.5,7.9,21,13.2c7.9,6.6,11.8,14.5,15.8,23.7
				c2.6,9.2,3.9,17.1,3.9,26.3c0,9.2-2.6,18.4-5.3,26.3c-3.9,9.2-7.9,17.1-13.2,25c-7.9,10.5-17.1,19.7-27.6,26.3
				c-10.5,7.9-21,14.5-31.6,21l34.2,26.3c6.6-10.5,13.2-21,19.7-31.6c6.6-10.5,13.2-21,19.7-30.3c5.3-7.9,11.8-15.8,18.4-23.7
				c6.6-7.9,13.2-14.5,21-21s15.8-13.2,25-17.1c9.2-5.3,18.4-9.2,27.6-10.5c3.9-1.3,7.9-1.3,13.2-2.6c5.3,0,10.5,0,17.1,1.3
				c5.3,1.3,11.8,2.6,17.1,6.6c5.3,2.6,10.5,7.9,15.8,13.2c-9.2,1.3-18.4,5.3-28.9,13.2c-10.5,6.6-21,15.8-31.6,25
				c-10.5,9.2-21,19.7-31.6,30.3c-10.5,10.5-18.4,19.7-26.3,27.6c-14.5,15.8-28.9,32.9-42.1,50c10.5,10.5,19.7,22.4,27.6,35.5
				c7.9,11.8,11.8,26.3,14.5,42.1c1.3,13.2,0,27.6-6.6,42.1c-5.3,14.5-13.2,27.6-22.4,40.8c-9.2,11.8-19.7,22.4-31.6,30.3
				C1891.3,1822.5,1880.8,1826.5,1870.2,1826.5z M1780.8,1733.1c9.2-7.9,18.4-17.1,26.3-27.6c9.2-10.5,18.4-22.4,26.3-34.2l-21-18.4
				c-7.9-7.9-15.8-14.5-23.7-23.7c-7.9-7.9-15.8-17.1-22.4-26.3c-17.1,7.9-31.6,15.8-42.1,22.4c-10.5,7.9-19.7,15.8-26.3,22.4
				c-6.6,7.9-11.8,15.8-14.5,22.4c-2.6,7.9-5.3,15.8-6.6,22.4c-2.6,11.8-1.3,22.4,2.6,34.2c3.9,11.8,10.5,19.7,19.7,26.3
				s21,7.9,34.2,5.3C1747.9,1759.4,1763.7,1750.2,1780.8,1733.1z M1815,1445c-14.5,13.2-21,28.9-18.4,48.7
				c2.6,18.4,14.5,38.2,35.5,57.9l3.9-2.6c6.6-3.9,13.2-7.9,19.7-14.5c6.6-5.3,13.2-11.8,18.4-18.4s10.5-14.5,13.2-22.4
				c2.6-7.9,5.3-15.8,3.9-25c0-9.2-3.9-15.8-9.2-22.4c-6.6-5.3-13.2-9.2-21-11.8c-7.9-2.6-15.8-2.6-25-1.3
				C1828.1,1437.1,1821.6,1439.7,1815,1445z"/>
		</g>
	</g>
	<g>
		<g>
			<path class="st2" d="M369.2,2000.1c-9.2,0-17.1,3.9-22.4,11.8c-5.3,7.9-7.9,18.4-7.9,32.9c0,28.9,10.5,43.4,32.9,43.4
				c6.6,0,13.2-1.3,19.7-2.6c6.6-1.3,13.2-3.9,18.4-6.6v34.2c-13.2,5.3-26.3,7.9-42.1,7.9c-22.4,0-39.5-6.6-52.6-19.7
				c-11.8-13.2-18.4-31.6-18.4-56.6c0-15.8,2.6-28.9,9.2-40.8c5.3-11.8,14.5-21,25-27.6s23.7-9.2,38.2-9.2c15.8,0,31.6,3.9,46,10.5
				l-11.8,31.6c-5.3-2.6-10.5-5.3-17.1-6.6C381,2001.5,374.4,2000.1,369.2,2000.1z"/>
			<path class="st2" d="M546.8,2060.7c0,18.4-5.3,34.2-15.8,44.7c-10.5,10.5-25,15.8-43.4,15.8c-17.1,0-31.6-5.3-42.1-15.8
				c-10.5-10.5-15.8-25-15.8-44.7c0-18.4,5.3-34.2,15.8-44.7c10.5-10.5,25-15.8,43.4-15.8c11.8,0,21,2.6,30.3,7.9
				c9.2,5.3,15.8,11.8,19.7,21C545.5,2038.3,546.8,2048.8,546.8,2060.7z M471.8,2060.7c0,10.5,1.3,17.1,3.9,22.4
				c2.6,5.3,6.6,7.9,13.2,7.9c6.6,0,10.5-2.6,13.2-7.9c2.6-5.3,3.9-13.2,3.9-22.4c0-10.5-1.3-17.1-3.9-22.4
				c-2.6-5.3-6.6-7.9-13.2-7.9c-6.6,0-10.5,2.6-13.2,7.9C473.1,2043.6,471.8,2051.5,471.8,2060.7z"/>
			<path class="st2" d="M644.1,2119.9v-63.1c0-7.9-1.3-13.2-3.9-17.1s-5.3-5.3-10.5-5.3c-6.6,0-11.8,2.6-14.5,7.9
				c-2.6,5.3-3.9,14.5-3.9,27.6v51.3h-40.8v-117.1h30.3l5.3,14.5h2.6c3.9-5.3,7.9-9.2,14.5-11.8c6.6-2.6,13.2-3.9,21-3.9
				c13.2,0,22.4,3.9,30.3,11.8c6.6,7.9,10.5,18.4,10.5,31.6v76.3h-40.8V2119.9z"/>
			<path class="st2" d="M820.4,2002.8v19.7l-15.8,5.3c2.6,3.9,3.9,9.2,3.9,14.5c0,13.2-3.9,22.4-13.2,28.9s-22.4,10.5-39.5,10.5
				c-3.9,0-7.9,0-10.5-1.3c-1.3,1.3-1.3,3.9-1.3,5.3c0,2.6,1.3,3.9,5.3,3.9c2.6,1.3,7.9,1.3,13.2,1.3h19.7
				c26.3,0,39.5,10.5,39.5,32.9c0,14.5-6.6,25-18.4,32.9s-28.9,11.8-51.3,11.8c-17.1,0-28.9-2.6-38.2-7.9
				c-9.2-5.3-13.2-13.2-13.2-23.7c0-14.5,9.2-22.4,26.3-26.3c-3.9-1.3-6.6-3.9-9.2-7.9s-3.9-6.6-3.9-10.5s1.3-6.6,2.6-9.2
				c2.6-2.6,6.6-6.6,11.8-10.5c-6.6-2.6-10.5-6.6-14.5-13.2c-3.9-5.3-5.3-13.2-5.3-21c0-13.2,3.9-22.4,13.2-28.9s21-10.5,36.8-10.5
				c2.6,0,5.3,0,10.5,1.3c5.3,0,9.2,1.3,11.8,1.3h39.5V2002.8z M733.6,2134.3c0,3.9,1.3,6.6,5.3,7.9c3.9,2.6,7.9,2.6,14.5,2.6
				c9.2,0,17.1-1.3,23.7-3.9c5.3-2.6,9.2-5.3,9.2-9.2c0-2.6-1.3-5.3-5.3-6.6c-3.9-1.3-9.2-1.3-15.8-1.3h-15.8
				c-3.9,0-7.9,1.3-10.5,2.6C734.9,2129.1,733.6,2130.4,733.6,2134.3z M745.4,2040.9c0,11.8,3.9,18.4,11.8,18.4
				c3.9,0,6.6-1.3,9.2-3.9c2.6-2.6,2.6-7.9,2.6-13.2c0-11.8-3.9-18.4-11.8-18.4S745.4,2029.1,745.4,2040.9z"/>
			<path class="st2" d="M895.4,2121.2c-19.7,0-34.2-5.3-44.7-15.8c-10.5-10.5-15.8-25-15.8-43.4c0-19.7,5.3-34.2,14.5-44.7
				c10.5-10.5,23.7-15.8,42.1-15.8c17.1,0,31.6,3.9,40.8,13.2c9.2,9.2,14.5,22.4,14.5,39.5v18.4h-72.4c0,6.6,2.6,11.8,6.6,15.8
				s10.5,5.3,18.4,5.3c6.6,0,13.2-1.3,19.7-2.6c6.6-1.3,11.8-3.9,19.7-6.6v28.9c-6.6,2.6-13.2,5.3-19.7,6.6
				C912.5,2121.2,904.6,2121.2,895.4,2121.2z M892.8,2027.8c-5.3,0-9.2,1.3-11.8,3.9c-2.6,2.6-5.3,7.9-5.3,14.5h34.2
				c0-5.3-1.3-10.5-5.3-13.2C902,2030.4,898,2027.8,892.8,2027.8z"/>
			<path class="st2" d="M1008.5,2119.9h-40.8v-160.5h40.8V2119.9z"/>
			<path class="st2" d="M1112.5,2119.9l-7.9-15.8l0,0c-5.3,6.6-10.5,11.8-17.1,13.2c-5.3,2.6-13.2,3.9-22.4,3.9
				c-10.5,0-19.7-3.9-26.3-10.5s-9.2-15.8-9.2-27.6c0-11.8,3.9-21,13.2-27.6c9.2-6.6,21-9.2,38.2-10.5h19.7v-1.3
				c0-9.2-5.3-14.5-14.5-14.5c-7.9,0-19.7,2.6-32.9,9.2l-11.8-26.3c13.2-6.6,30.3-10.5,51.3-10.5c14.5,0,26.3,3.9,34.2,10.5
				c7.9,7.9,11.8,17.1,11.8,31.6v76.3L1112.5,2119.9L1112.5,2119.9z M1083.5,2093.6c5.3,0,9.2-1.3,11.8-5.3
				c3.9-2.6,5.3-6.6,5.3-11.8v-9.2h-9.2c-13.2,0-19.7,5.3-19.7,14.5C1071.7,2089.6,1075.6,2093.6,1083.5,2093.6z"/>
			<path class="st2" d="M1204.6,2121.2c-7.9,0-15.8-2.6-22.4-6.6c-6.6-5.3-10.5-11.8-14.5-21c-3.9-9.2-5.3-19.7-5.3-31.6
				c0-18.4,3.9-34.2,11.8-44.7c7.9-10.5,18.4-15.8,31.6-15.8c6.6,0,11.8,1.3,17.1,3.9s9.2,6.6,13.2,13.2h1.3
				c-1.3-9.2-1.3-18.4-1.3-27.6v-31.6h39.5v160.5h-30.3l-9.2-14.5h-1.3C1228.2,2115.9,1217.7,2121.2,1204.6,2121.2z M1220.3,2089.6
				c6.6,0,10.5-2.6,13.2-6.6c2.6-3.9,3.9-10.5,3.9-18.4v-2.6c0-10.5-1.3-17.1-3.9-22.4c-2.6-3.9-7.9-6.6-14.5-6.6
				c-5.3,0-9.2,2.6-11.8,7.9c-2.6,5.3-3.9,11.8-3.9,21c0,9.2,1.3,15.8,3.9,21C1211.1,2087,1215.1,2089.6,1220.3,2089.6z"/>
			<path class="st2" d="M1415.1,2060.7c0,18.4-5.3,34.2-15.8,44.7c-10.5,10.5-25,15.8-43.4,15.8c-17.1,0-31.6-5.3-42.1-15.8
				c-10.5-10.5-15.8-25-15.8-44.7c0-18.4,5.3-34.2,15.8-44.7c10.5-10.5,25-15.8,43.4-15.8c11.8,0,21,2.6,30.3,7.9
				c9.2,5.3,15.8,11.8,19.7,21C1412.4,2038.3,1415.1,2048.8,1415.1,2060.7z M1338.7,2060.7c0,10.5,1.3,17.1,3.9,22.4
				c2.6,5.3,6.6,7.9,13.2,7.9s10.5-2.6,13.2-7.9c2.6-5.3,3.9-13.2,3.9-22.4c0-10.5-1.3-17.1-3.9-22.4c-2.6-5.3-6.6-7.9-13.2-7.9
				s-10.5,2.6-13.2,7.9C1340.1,2043.6,1338.7,2051.5,1338.7,2060.7z"/>
			<path class="st2" d="M1526.9,2084.3c0,11.8-3.9,22.4-13.2,27.6c-7.9,6.6-21,9.2-36.8,9.2c-9.2,0-15.8,0-22.4-1.3
				s-13.2-2.6-19.7-5.3V2083c6.6,2.6,13.2,5.3,21,6.6c7.9,1.3,14.5,2.6,19.7,2.6c9.2,0,13.2-2.6,13.2-6.6c0-2.6-1.3-3.9-3.9-5.3
				c-2.6-1.3-9.2-5.3-21-9.2c-10.5-3.9-18.4-9.2-22.4-14.5c-3.9-5.3-6.6-13.2-6.6-21c0-10.5,3.9-19.7,13.2-25
				c7.9-6.6,19.7-9.2,35.5-9.2c7.9,0,14.5,1.3,21,2.6c6.6,1.3,13.2,3.9,21,7.9l-10.5,26.3c-5.3-2.6-10.5-3.9-17.1-6.6
				c-6.6-1.3-10.5-2.6-14.5-2.6c-6.6,0-10.5,1.3-10.5,5.3c0,2.6,1.3,3.9,3.9,5.3c2.6,1.3,9.2,3.9,19.7,9.2
				c7.9,3.9,14.5,6.6,18.4,10.5c3.9,2.6,6.6,6.6,9.2,11.8C1526.9,2072.5,1526.9,2077.8,1526.9,2084.3z"/>
			<path class="st2" d="M1716.3,2017.3c0,17.1-5.3,30.3-14.5,39.5c-10.5,9.2-23.7,13.2-42.1,13.2h-11.8v50h-40.8v-150h52.6
				c18.4,0,32.9,3.9,43.4,11.8C1711.1,1989.6,1716.3,2001.5,1716.3,2017.3z M1647.9,2037h7.9c6.6,0,10.5-1.3,14.5-5.3
				c3.9-3.9,5.3-7.9,5.3-14.5c0-10.5-5.3-15.8-17.1-15.8h-10.5C1647.9,2001.5,1647.9,2037,1647.9,2037z"/>
			<path class="st2" d="M1849.2,2060.7c0,18.4-5.3,34.2-15.8,44.7s-25,15.8-43.4,15.8c-17.1,0-31.6-5.3-42.1-15.8
				s-15.8-25-15.8-44.7c0-18.4,5.3-34.2,15.8-44.7c10.5-10.5,25-15.8,43.4-15.8c11.8,0,21,2.6,30.3,7.9c9.2,5.3,15.8,11.8,19.7,21
				C1846.6,2038.3,1849.2,2048.8,1849.2,2060.7z M1772.9,2060.7c0,10.5,1.3,17.1,3.9,22.4c2.6,5.3,6.6,7.9,13.2,7.9
				s10.5-2.6,13.2-7.9c2.6-5.3,3.9-13.2,3.9-22.4c0-10.5-1.3-17.1-3.9-22.4c-2.6-5.3-6.6-7.9-13.2-7.9s-10.5,2.6-13.2,7.9
				C1774.2,2043.6,1772.9,2051.5,1772.9,2060.7z"/>
			<path class="st2" d="M1941.3,2001.5c3.9,0,6.6,0,10.5,1.3h2.6l-3.9,38.2c-3.9-1.3-7.9-1.3-13.2-1.3c-9.2,0-15.8,2.6-19.7,6.6
				c-3.9,3.9-6.6,9.2-6.6,17.1v57.9h-40.8v-117.1h30.3l6.6,18.4h1.3c3.9-6.6,7.9-10.5,14.5-14.5S1936,2001.5,1941.3,2001.5z"/>
			<path class="st2" d="M2116.3,2119.9h-89.5v-150h89.5v32.9h-48.7v23.7h44.7v32.9h-44.7v28.9h48.7V2119.9z"/>
			<path class="st2" d="M2213.6,2119.9v-63.1c0-7.9-1.3-13.2-3.9-17.1s-5.3-5.3-10.5-5.3c-6.6,0-11.8,2.6-14.5,7.9
				c-2.6,5.3-3.9,14.5-3.9,27.6v51.3h-40.8v-117.1h30.3l5.3,14.5h2.6c3.9-5.3,7.9-9.2,14.5-11.8s13.2-3.9,21-3.9
				c13.2,0,22.4,3.9,30.3,11.8c6.6,7.9,10.5,18.4,10.5,31.6v76.3h-40.8V2119.9z"/>
			<path class="st2" d="M2334.6,2121.2c-18.4,0-32.9-5.3-43.4-15.8s-14.5-25-14.5-44.7c0-19.7,5.3-34.2,15.8-44.7
				c10.5-10.5,26.3-15.8,44.7-15.8c13.2,0,26.3,2.6,38.2,9.2l-11.8,30.3c-5.3-2.6-9.2-3.9-13.2-5.3c-3.9-1.3-7.9-1.3-13.2-1.3
				c-6.6,0-11.8,2.6-14.5,7.9c-3.9,5.3-5.3,11.8-5.3,21c0,18.4,6.6,27.6,21,27.6c11.8,0,23.7-3.9,34.2-10.5v31.6
				C2361,2118.6,2349.1,2121.2,2334.6,2121.2z"/>
			<path class="st2" d="M2505.7,2060.7c0,18.4-5.3,34.2-15.8,44.7s-25,15.8-43.4,15.8c-17.1,0-31.6-5.3-42.1-15.8
				s-15.8-25-15.8-44.7c0-18.4,5.3-34.2,15.8-44.7c10.5-10.5,25-15.8,43.4-15.8c11.8,0,21,2.6,30.3,7.9c9.2,5.3,15.8,11.8,19.7,21
				C2504.4,2038.3,2505.7,2048.8,2505.7,2060.7z M2430.7,2060.7c0,10.5,1.3,17.1,3.9,22.4c2.6,5.3,6.6,7.9,13.2,7.9
				s10.5-2.6,13.2-7.9c2.6-5.3,3.9-13.2,3.9-22.4c0-10.5-1.3-17.1-3.9-22.4c-2.6-5.3-6.6-7.9-13.2-7.9s-10.5,2.6-13.2,7.9
				C2432,2043.6,2430.7,2051.5,2430.7,2060.7z"/>
			<path class="st2" d="M2671.4,2119.9v-63.1c0-7.9-1.3-13.2-2.6-17.1c-2.6-3.9-5.3-5.3-10.5-5.3c-6.6,0-10.5,2.6-13.2,7.9
				c-2.6,5.3-3.9,13.2-3.9,25v53.9h-40.8V2058c0-7.9-1.3-13.2-2.6-17.1c-2.6-3.9-5.3-5.3-10.5-5.3c-6.6,0-10.5,2.6-13.2,7.9
				c-2.6,5.3-3.9,14.5-3.9,27.6v51.3h-40.8v-117.1h30.3l5.3,14.5h2.6c2.6-5.3,7.9-9.2,13.2-11.8c5.3-2.6,13.2-3.9,19.7-3.9
				c17.1,0,28.9,5.3,35.5,15.8h2.6c3.9-5.3,7.9-7.9,13.2-11.8c5.3-2.6,11.8-3.9,19.7-3.9c13.2,0,23.7,3.9,30.3,10.5
				s10.5,18.4,10.5,31.6v76.3h-40.8V2119.9z"/>
			<path class="st2" d="M2796.4,2121.2c-19.7,0-34.2-5.3-44.7-15.8c-10.5-10.5-15.8-25-15.8-43.4c0-19.7,5.3-34.2,14.5-44.7
				c10.5-10.5,23.7-15.8,42.1-15.8c17.1,0,31.6,3.9,40.8,13.2c9.2,9.2,14.5,22.4,14.5,39.5v18.4h-72.4c0,6.6,2.6,11.8,6.6,15.8
				s10.5,5.3,18.4,5.3c6.6,0,13.2-1.3,19.7-2.6s11.8-3.9,19.7-6.6v28.9c-6.6,2.6-13.2,5.3-19.7,6.6S2805.6,2121.2,2796.4,2121.2z
				 M2793.8,2027.8c-5.3,0-9.2,1.3-11.8,3.9c-2.6,2.6-5.3,7.9-5.3,14.5h34.2c0-5.3-1.3-10.5-5.3-13.2
				C2803,2030.4,2799,2027.8,2793.8,2027.8z"/>
			<path class="st2" d="M2943.8,2119.9v-63.1c0-7.9-1.3-13.2-3.9-17.1c-2.6-3.9-5.3-5.3-10.5-5.3c-6.6,0-11.8,2.6-14.5,7.9
				c-2.6,5.3-3.9,14.5-3.9,27.6v51.3h-40.8v-117.1h30.3l5.3,14.5h2.6c3.9-5.3,7.9-9.2,14.5-11.8s13.2-3.9,21-3.9
				c13.2,0,22.4,3.9,30.3,11.8c6.6,7.9,10.5,18.4,10.5,31.6v76.3h-40.8V2119.9z"/>
			<path class="st2" d="M3046.4,2121.2c-7.9,0-15.8-2.6-22.4-6.6s-10.5-11.8-14.5-21c-3.9-9.2-5.3-19.7-5.3-31.6
				c0-18.4,3.9-34.2,11.8-44.7c7.9-10.5,18.4-15.8,31.6-15.8c6.6,0,11.8,1.3,17.1,3.9c5.3,2.6,9.2,6.6,13.2,13.2h1.3
				c-1.3-9.2-1.3-18.4-1.3-27.6v-31.6h40.8v160.5h-30.3l-9.2-14.5h-1.3C3071.4,2115.9,3060.8,2121.2,3046.4,2121.2z M3063.5,2089.6
				c6.6,0,10.5-2.6,13.2-6.6c2.6-3.9,3.9-10.5,3.9-18.4v-2.6c0-10.5-1.3-17.1-3.9-22.4c-2.6-3.9-7.9-6.6-14.5-6.6
				c-5.3,0-9.2,2.6-11.8,7.9c-2.6,5.3-3.9,11.8-3.9,21c0,9.2,1.3,15.8,3.9,21S3058.2,2089.6,3063.5,2089.6z"/>
			<path class="st2" d="M3222.7,2119.9l-7.9-15.8h-1.3c-5.3,6.6-10.5,11.8-17.1,13.2s-13.2,3.9-22.4,3.9c-10.5,0-19.7-3.9-26.3-10.5
				s-9.2-15.8-9.2-27.6c0-11.8,3.9-21,13.2-27.6c9.2-6.6,21-9.2,38.2-10.5h19.7v-1.3c0-9.2-5.3-14.5-14.5-14.5
				c-7.9,0-19.7,2.6-32.9,9.2l-11.8-26.3c13.2-6.6,30.3-10.5,51.3-10.5c14.5,0,26.3,3.9,34.2,10.5s11.8,17.1,11.8,31.6v76.3
				L3222.7,2119.9L3222.7,2119.9z M3192.4,2093.6c5.3,0,9.2-1.3,11.8-5.3c2.6-3.9,5.3-6.6,5.3-11.8v-9.2h-9.2
				c-13.2,0-19.7,5.3-19.7,14.5C3180.6,2089.6,3184.5,2093.6,3192.4,2093.6z"/>
		</g>
	</g>
</g>
</svg>
