<?xml version="1.0" encoding="utf-8"?>
<!-- Generator: Adobe Illustrator 21.0.0, SVG Export Plug-In . SVG Version: 6.00 Build 0)  -->
<svg version="1.1" id="Capa_1" xmlns="http://www.w3.org/2000/svg" xmlns:xlink="http://www.w3.org/1999/xlink" x="0px" y="0px"
	 viewBox="0 0 39.3 55.8" style="enable-background:new 0 0 39.3 55.8;" xml:space="preserve">
<style type="text/css">
	.st0{fill:#999999;}
</style>
<g>
	<path class="st0" d="M38.9,54.2c-0.1,0-0.2,0-0.3,0c0-10-0.1-20.1-0.2-30.1c0.7-7.8,0.7-15.6,0.3-23.4c0.1,0,0.2-0.1,0.4-0.1
		C39.4,0.5,39.3,0,38.9,0C26.2,1.7,13.4,4.7,0.8,7.3C0.4,7.4,0.5,7.9,0.8,7.9C0.7,8,0.6,8.4,0.9,8.4c12.3,1.8,24.7,2.2,37,1.3
		c0.5,0,0.5-0.8,0-0.8C25.6,9.7,13.4,9.3,1.1,7.9c12.3-2.1,25-4.1,37.1-7.1c0.1,4.2,0.1,8.4,0,12.7c0-1.1,0-2.3,0-3.4
		c0-0.3-0.4-0.3-0.4,0c-0.8,14.6-0.8,29.6,0.2,44.2c-12.3-1.5-24.7-1.8-37-0.9c-0.3,0-0.3,0.5,0,0.5c6.3-0.2,12.7-0.3,19-0.1
		c2.9,0.1,5.7,0.2,8.5,0.4c1.5,0.1,7.9,1.5,9.5,0.8c0,0.2,0,0.4,0,0.7c0,0.4,0.6,0.4,0.6,0c0-0.1,0-0.1,0-0.2c0,0,0,0,0,0
		c0.2-0.1,0.3-0.2,0.5-0.3C39.5,54.7,39.3,54.3,38.9,54.2z"/>
	<path class="st0" d="M0.5,7.9c0-0.3-0.5-0.3-0.5,0c0.7,14.9,0.5,29.6,0.5,44.5c0,0.4,0.6,0.4,0.6,0C2.1,37.7,1.6,22.7,0.5,7.9z"/>
	<path class="st0" d="M13.7,34.8c-0.1,0-0.1-0.1-0.2-0.1c-0.2-0.1-0.4,0-0.4,0.2c-0.1-0.5-0.1-1.6-0.2-1.7c-0.1-0.6-0.2-1.2-0.3-1.8
		c-0.2-1.3-0.4-2.6-0.6-3.9c0-0.3-0.6-0.4-0.7-0.1c-0.9,1.9-1.5,3.8-2,5.8c-1-2.3-2-4.6-3-6.9c-0.1-0.3-0.6-0.2-0.7,0.1
		C5,29.4,4.5,32.9,5.3,36c0.1,0.2,0.3,0.1,0.3,0c0.2-2.8,0.1-5.4,0.5-8.2c1,2.3,2,4.5,2.9,6.8c0.1,0.3,0.7,0.2,0.7-0.1
		c0.4-1.9,1-3.7,1.7-5.5c0.2,1.2,0.4,2.4,0.5,3.6c0.1,1,0,2.3,0.9,3.1c0.1,0.1,0.3,0.1,0.5,0.1c0.3-0.2,0.4-0.2,0.5-0.6
		C13.9,35,13.8,34.8,13.7,34.8z"/>
	<path class="st0" d="M19.4,28.1c-1.4,0-2.8,0-4.2,0.1c-0.1,0-0.2,0-0.2,0c0,0-0.1,0-0.1,0c-0.3,0-0.3,0.4,0,0.4
		c-0.2,1.2-0.3,2.4-0.3,3.5c-0.1,0-0.1,0-0.2,0.1c-0.2,0.1-0.2,0.4,0,0.4c0,0,0.1,0,0.2,0c0,0.8,0,1.5,0.1,2.3
		c0,0.2,0.1,0.3,0.3,0.4c1.1,0.3,2.2,0.2,3.2-0.4c0.3-0.2,0.1-0.6-0.2-0.5c-0.9,0.3-1.7,0.4-2.6,0.2c-0.1-0.7-0.1-1.3-0.1-2
		c0.8-0.1,1.6-0.2,2.2-0.4c0.3-0.1,0.2-0.5-0.1-0.5c-0.7,0-1.5,0.2-2.2,0.4c0-1.1,0-2.2,0.1-3.3c1.3,0.1,2.7,0.1,4.1,0.1
		C19.8,28.8,19.8,28.2,19.4,28.1z"/>
	<path class="st0" d="M25.6,27.9c-0.1-0.4-0.7-0.3-0.7,0.1c0.3,2.3,0.5,4.5,0.6,6.8c-1.4-2.3-2.5-4.7-3.3-7.3
		c-0.1-0.4-0.8-0.3-0.7,0.1c0.2,2.6,0.1,5.2-0.1,7.9c0,0.4,0.6,0.4,0.6,0c0.2-1.8,0.3-3.6,0.3-5.4c0.8,2.2,1.9,4.2,3.3,6.2
		c0.2,0.3,0.7,0.2,0.7-0.2C26.3,33.4,26.2,30.6,25.6,27.9z"/>
	<path class="st0" d="M32.1,28.4c-0.1-0.5-0.9-0.3-0.7,0.2c0.4,1.2,0.6,2.4,0.6,3.6c0,1.1,0,4.7-2.4,3.5c-1-0.5-1.3-2.3-1.5-3.3
		c-0.3-1.3-0.4-2.6-0.3-4c0-0.3-0.5-0.3-0.5,0c-0.2,2.1-0.1,8.6,3.4,8.5c1.3-0.1,1.7-1.4,1.9-2.4C32.9,32.5,32.7,30.4,32.1,28.4z"/>
</g>
</svg>
