<?xml version="1.0" encoding="utf-8"?>
<!-- Generator: Adobe Illustrator 21.0.0, SVG Export Plug-In . SVG Version: 6.00 Build 0)  -->
<svg version="1.1" id="Capa_1" xmlns="http://www.w3.org/2000/svg" xmlns:xlink="http://www.w3.org/1999/xlink" x="0px" y="0px"
	 viewBox="0 0 70 57.5" style="enable-background:new 0 0 70 57.5;" xml:space="preserve">
<style type="text/css">
	.st0{fill:url(#SVGID_1_);}
	.st1{fill:url(#SVGID_2_);}
	.st2{fill:#D8D9DD;}
	.st3{fill-rule:evenodd;clip-rule:evenodd;fill:#D8D9DD;}
	.st4{clip-path:url(#SVGID_4_);}
	.st5{fill:url(#SVGID_5_);}
	.st6{clip-path:url(#SVGID_7_);}
	.st7{fill:url(#SVGID_8_);}
	.st8{fill:none;stroke:#D8D9DD;stroke-miterlimit:10;}
	.st9{clip-path:url(#SVGID_10_);}
	.st10{fill:url(#SVGID_11_);}
	.st11{clip-path:url(#SVGID_13_);}
	.st12{fill:url(#SVGID_14_);}
	.st13{fill:#FFFFFF;}
	.st14{clip-path:url(#SVGID_16_);}
</style>
<g>
	<path class="st2" d="M21.1,55.2c0.6,2.6,2.5,3.1,4.4,1.3L36.9,45l5.4,0.1l1.1-8.3l-6.1-5.6c-1.1-1-1.5-2.2-1.2-3.3
		c0.3-1.2,1.3-2,2.7-2.3l8.1-1.7l3.8-7.5c0.1-0.2,0.2-0.3,0.3-0.5l2.1-4.4c1.1-2.4,0-3.9-2.6-3.3l-16.1,3.3L21.6,0.9
		c-2-1.7-3.9-0.9-4.2,1.7l-1.9,16.5L1.6,27.8c-2.2,1.4-2,3.3,0.4,4.3l15.4,6.3L21.1,55.2z"/>
	<path class="st2" d="M68.7,26.5l-9.1-1.4l-4.7-8c-0.4-0.6-0.8-0.9-1.3-0.9c-0.5,0-0.9,0.3-1.3,1l-4.2,8.3l-2.1,0.4l-6.9,1.5
		c-1.4,0.3-1.7,1.4-0.6,2.3l6.9,6.3l-1.2,9.1l-0.1,0.4c-0.1,1.1,0.3,1.7,1.1,1.7c0.3,0,0.6-0.1,0.9-0.2l3.8-1.8l4.4-2l1.3,0.5l7,2.8
		c0.3,0.1,0.6,0.2,0.8,0.2c0.8,0,1.3-0.7,1-1.8l-2.3-9.4l7-6.8C70.4,27.7,70.1,26.7,68.7,26.5z"/>
</g>
</svg>
