<?xml version="1.0" encoding="utf-8"?>
<!-- Generator: Adobe Illustrator 23.0.1, SVG Export Plug-In . SVG Version: 6.00 Build 0)  -->
<svg version="1.1" id="Camada_1" xmlns="http://www.w3.org/2000/svg" xmlns:xlink="http://www.w3.org/1999/xlink" x="0px" y="0px"
	 viewBox="0 0 17.4 17.4" style="enable-background:new 0 0 17.4 17.4;" xml:space="preserve">
<style type="text/css">
	.st0{fill:#FFFFFF;}
</style>
<g id="XMLID_53_">
	<path id="XMLID_66_" class="st0" d="M3.3,4.6C3,6.1,3.4,6.9,4.2,7.6s3,0.9,3,0.9C7.2,5.4,4.6,6.5,3.3,4.6z"/>
	<path id="XMLID_62_" class="st0" d="M4,8.3c-0.1,1.4,0.4,2.1,1.3,2.8c0.9,0.6,3.2,0.6,3.2,0.6C8.1,8.7,5.6,10,4,8.3z"/>
	<path id="XMLID_61_" class="st0" d="M7,15c0.3,1.3,1,1.9,2.1,2.3c1.1,0.4,3.5-0.1,3.5-0.1C11.4,14.6,9.2,16.2,7,15z"/>
	<path id="XMLID_60_" class="st0" d="M7,14.4c1,0.5,3.4,0.3,3.4,0.3c-0.9-2.8-3.2-1.4-5.1-2.8C5.4,13.2,6,13.8,7,14.4z"/>
	<path id="XMLID_59_" class="st0" d="M13.3,16.8c0,0,1-1.9,0.9-2.9s-0.3-1.6-1.3-2.3C12.9,13.9,10.4,15.3,13.3,16.8z"/>
	<path id="XMLID_58_" class="st0" d="M9.3,11.3c0,0,1.4-1.8,1.6-2.8c0.2-1,0.1-1.7-0.6-2.6C9.7,8.2,7,9.2,9.3,11.3z"/>
	<path id="XMLID_57_" class="st0" d="M11.1,14.2c0,0,1.2-1.8,1.3-2.8c0.1-1-0.1-1.6-1-2.5C11,11.2,8.4,12.4,11.1,14.2z"/>
	<path id="XMLID_56_" class="st0" d="M7.9,8.2c0,0,1.6-1.7,2-2.7c0.3-1,0.4-1.7-0.2-2.8C8.7,5.1,6,5.8,7.9,8.2z"/>
	<path id="XMLID_55_" class="st0" d="M7.4,4.1c0.6-1.5,0-1.9-0.7-2.9C6.5,0.9,6.1,0,6.1,0S5.8,0.9,5.5,1.6c-0.6,1.3-1.1,2.2,0,3.2
		c0.6,0.6,1.1,0.6,1.1,0.6S7,5,7.4,4.1z"/>
</g>
</svg>
