<?xml version="1.0" encoding="utf-8"?>
<!-- Generator: Adobe Illustrator 21.0.0, SVG Export Plug-In . SVG Version: 6.00 Build 0)  -->
<svg version="1.1" id="Camada_1" xmlns="http://www.w3.org/2000/svg" xmlns:xlink="http://www.w3.org/1999/xlink" x="0px" y="0px"
	 viewBox="0 0 11.1 17.5" style="enable-background:new 0 0 11.1 17.5;" xml:space="preserve">
<style type="text/css">
	.st0{fill:#94C123;}
	.st1{fill:#FFFFFF;}
	.st2{fill-rule:evenodd;clip-rule:evenodd;fill:none;stroke:#FFFFFF;stroke-width:8;stroke-miterlimit:10;}
	.st3{fill-rule:evenodd;clip-rule:evenodd;fill:#FFFFFF;}
	.st4{fill:#F9B122;}
	.st5{fill:#009062;}
	.st6{clip-path:url(#XMLID_71_);fill:none;stroke:#F9B122;stroke-width:2;stroke-miterlimit:10;}
</style>
<g id="XMLID_53_">
	<path id="XMLID_66_" class="st1" d="M0.1,4.6c-0.3,1.5,0.1,2.3,0.9,3c0.8,0.7,3,0.9,3,0.9C4,5.4,1.4,6.5,0.1,4.6z"/>
	<path id="XMLID_62_" class="st1" d="M0.8,8.3c-0.1,1.4,0.4,2.1,1.3,2.8c0.9,0.6,3.2,0.6,3.2,0.6C4.9,8.7,2.4,10,0.8,8.3z"/>
	<path id="XMLID_61_" class="st1" d="M3.8,15c0.3,1.3,1,1.9,2.1,2.3c1.1,0.4,3.5-0.1,3.5-0.1C8.2,14.6,6,16.2,3.8,15z"/>
	<path id="XMLID_60_" class="st1" d="M3.8,14.4c1,0.5,3.4,0.3,3.4,0.3c-0.9-2.8-3.2-1.4-5.1-2.8C2.2,13.2,2.8,13.8,3.8,14.4z"/>
	<path id="XMLID_59_" class="st1" d="M10.1,16.8c0,0,1-1.9,0.9-2.9c-0.1-1-0.3-1.6-1.3-2.3C9.7,13.9,7.2,15.3,10.1,16.8z"/>
	<path id="XMLID_58_" class="st1" d="M6.1,11.3c0,0,1.4-1.8,1.6-2.8c0.2-1,0.1-1.7-0.6-2.6C6.5,8.2,3.8,9.2,6.1,11.3z"/>
	<path id="XMLID_57_" class="st1" d="M7.9,14.2c0,0,1.2-1.8,1.3-2.8c0.1-1-0.1-1.6-1-2.5C7.8,11.2,5.2,12.4,7.9,14.2z"/>
	<path id="XMLID_56_" class="st1" d="M4.7,8.2c0,0,1.6-1.7,2-2.7c0.3-1,0.4-1.7-0.2-2.8C5.5,5.1,2.8,5.8,4.7,8.2z"/>
	<path id="XMLID_55_" class="st1" d="M4.2,4.1c0.6-1.5,0-1.9-0.7-2.9C3.3,0.9,2.9,0,2.9,0S2.6,0.9,2.3,1.6c-0.6,1.3-1.1,2.2,0,3.2
		c0.6,0.6,1.1,0.6,1.1,0.6S3.8,5,4.2,4.1z"/>
</g>
</svg>
