<?xml version="1.0" encoding="utf-8"?>
<!-- Generator: Adobe Illustrator 21.0.0, SVG Export Plug-In . SVG Version: 6.00 Build 0)  -->
<svg version="1.1" id="Capa_1" xmlns="http://www.w3.org/2000/svg" xmlns:xlink="http://www.w3.org/1999/xlink" x="0px" y="0px"
	 viewBox="0 0 20.9 20.9" style="enable-background:new 0 0 20.9 20.9;" xml:space="preserve">
<style type="text/css">
	.st0{fill:#222221;}
	.st1{fill:#FFFFFF;}
	.st2{fill-rule:evenodd;clip-rule:evenodd;fill:#FFFFFF;}
	.st3{fill-rule:evenodd;clip-rule:evenodd;fill:#FFFFFF;stroke:#222221;stroke-miterlimit:10;}
	.st4{fill:none;stroke:#222221;stroke-width:1.5;stroke-miterlimit:10;}
	.st5{fill-rule:evenodd;clip-rule:evenodd;fill:#222221;}
</style>
<g id="XMLID_9_">
	<path id="XMLID_33_" class="st2" d="M20.9,9.9C20.7,4.4,16.2,0,10.6,0C5.1,0,0.6,4.3,0.4,9.7c0,0.1,0,0.3,0,0.4
		c0,1.9,0.5,3.7,1.5,5.3L0,20.9l5.7-1.8c1.5,0.8,3.2,1.3,5,1.3c5.7,0,10.2-4.6,10.2-10.2C20.9,10.1,20.9,10,20.9,9.9z M10.6,18.7
		c-1.8,0-3.4-0.5-4.7-1.4l-3.3,1.1l1.1-3.2c-1-1.4-1.6-3.1-1.6-5c0-0.3,0-0.6,0-0.8C2.5,5,6.2,1.6,10.6,1.6c4.5,0,8.2,3.5,8.6,7.9
		c0,0.2,0,0.4,0,0.7C19.2,14.9,15.4,18.7,10.6,18.7z"/>
	<path id="XMLID_28_" class="st2" d="M15.3,12.2c-0.3-0.1-1.5-0.7-1.7-0.8c-0.2-0.1-0.4-0.1-0.6,0.1c-0.2,0.2-0.7,0.8-0.8,1
		c-0.1,0.2-0.3,0.2-0.5,0.1c-0.2-0.1-1.1-0.4-2-1.2c-0.7-0.7-1.3-1.5-1.4-1.7c-0.1-0.2,0-0.4,0.1-0.5C8.5,9,8.6,8.8,8.8,8.7
		c0,0,0.1-0.1,0.1-0.1C8.9,8.5,9,8.4,9,8.3c0.1-0.2,0-0.3,0-0.4C8.9,7.7,8.4,6.5,8.2,6C8,5.5,7.8,5.6,7.7,5.6c-0.1,0-0.3,0-0.5,0
		C7,5.5,6.7,5.6,6.5,5.8C6.3,6.1,5.6,6.7,5.6,7.9c0,0.3,0.1,0.6,0.1,0.8c0.3,0.9,0.8,1.6,0.9,1.7c0.1,0.2,1.7,2.8,4.3,3.8
		c2.6,1,2.6,0.7,3,0.6c0.5,0,1.5-0.6,1.7-1.2c0.2-0.6,0.2-1.1,0.1-1.2C15.7,12.4,15.6,12.4,15.3,12.2z"/>
</g>
</svg>
