<svg xmlns="http://www.w3.org/2000/svg" xmlns:xlink="http://www.w3.org/1999/xlink" width="68" height="68" viewBox="0 0 68 68"><defs><clipPath id="a"><rect width="68" height="68" transform="translate(29 327)" fill="#999" stroke="#707070" stroke-width="1"/></clipPath></defs><g transform="translate(-29 -327)" clip-path="url(#a)"><g transform="translate(30.544 327)"><g transform="translate(0 0)"><path d="M51.739,48.138c.95,1.127,9.853,10.03,11.311,11.841a4.562,4.562,0,0,1,.641,5.192A5.067,5.067,0,0,1,58.963,68a5.464,5.464,0,0,1-3.844-1.966c-2.165-2.563-8.041-8.572-10.206-11.112-.133-.177-.309-.331-.508-.552-.221.4-.42.707-.574,1.06-1.569,3.248-3.159,6.5-4.728,9.743A2.089,2.089,0,0,1,36.187,66.3a3.492,3.492,0,0,1-2.077-2.43c-1.326-4.706-2.651-9.433-3.977-14.139Q27.085,38.86,23.992,27.968a5.16,5.16,0,0,1-.11-3c.552-1.657,2.1-2.386,4.021-1.723a40.508,40.508,0,0,1,4.131,1.834q15.31,7.158,30.6,14.338a3.554,3.554,0,0,1,2.209,2.474,2.1,2.1,0,0,1-1.569,2.761c-3.424,1.016-6.848,2.01-10.251,3.027C52.623,47.807,52.247,47.962,51.739,48.138Z" transform="translate(-0.021 -0.002)" fill="#999"/><path d="M40.517,22.379a2.6,2.6,0,0,1,1.878-2.541c2.717-.839,5.435-1.635,8.2-2.32A2.512,2.512,0,0,1,53.838,19.4,2.537,2.537,0,0,1,52,22.622c-2.651.839-5.3,1.613-8,2.3A2.64,2.64,0,0,1,40.517,22.379Z" transform="translate(-0.021 -0.002)" fill="#999"/><path d="M10.361,28.985c1.7,0,2.7.751,3,1.944a2.478,2.478,0,0,1-1.37,3,23.536,23.536,0,0,1-3.27,1.06c-1.789.508-3.6,1.06-5.413,1.48A2.518,2.518,0,0,1,.11,34.53a2.565,2.565,0,0,1,1.9-3.181c2.055-.641,4.153-1.215,6.23-1.812C9.058,29.294,9.9,29.1,10.361,28.985Z" transform="translate(-0.021 -0.002)" fill="#999"/><path d="M35.259,14.978a2.676,2.676,0,0,1-2.386-4.021C34.22,8.483,35.612,6.031,37,3.579A2.354,2.354,0,0,1,39.721,2.3a2.554,2.554,0,0,1,2.187,2.187,2.667,2.667,0,0,1-.287,1.546q-2.055,3.844-4.242,7.622A2.376,2.376,0,0,1,35.259,14.978Z" transform="translate(-0.021 -0.002)" fill="#999"/><path d="M14.89,18.69a2.634,2.634,0,0,1-1.834,2.7,3.118,3.118,0,0,1-2.077-.331c-2.518-1.281-5.015-2.673-7.467-4.109a2.632,2.632,0,0,1,2.563-4.6c2.585,1.348,5.1,2.784,7.644,4.242A2.191,2.191,0,0,1,14.89,18.69Z" transform="translate(-0.021 -0.002)" fill="#999"/><path d="M11.952,49.044a6.92,6.92,0,0,1,.42-1.193c1.37-2.5,2.739-4.971,4.153-7.445a2.662,2.662,0,0,1,3.535-1.016,2.525,2.525,0,0,1,1.083,3.535c-1.37,2.518-2.761,5.015-4.175,7.511a2.561,2.561,0,0,1-3.027,1.215A2.863,2.863,0,0,1,11.952,49.044Z" transform="translate(-0.021 -0.002)" fill="#999"/><path d="M22.247,13.41a2.342,2.342,0,0,1-2.342-1.7C19.043,8.9,18.226,6.1,17.5,3.27A2.521,2.521,0,0,1,19.4.088a2.625,2.625,0,0,1,3.181,1.856c.817,2.7,1.591,5.39,2.32,8.13A2.563,2.563,0,0,1,22.247,13.41Z" transform="translate(-0.021 -0.002)" fill="#999"/></g></g></g></svg>