<svg xmlns="http://www.w3.org/2000/svg" xmlns:xlink="http://www.w3.org/1999/xlink" width="30" height="29.21" viewBox="0 0 30 29.21"><defs><clipPath id="a"><rect width="30" height="29.211" transform="translate(235 540)" fill="#fff"/></clipPath></defs><g transform="translate(-235 -540)" clip-path="url(#a)"><g transform="translate(235 540)"><path d="M29.211,13.837A14.357,14.357,0,0,0,14.815,0,14.183,14.183,0,0,0,.559,13.557v.559a13.814,13.814,0,0,0,2.1,7.407L0,29.211l7.967-2.516a14.853,14.853,0,0,0,6.988,1.817A14.226,14.226,0,0,0,29.211,14.256Zm-14.4,12.3a11.4,11.4,0,0,1-6.569-1.957L3.634,25.716l1.537-4.472a11.9,11.9,0,0,1-2.236-6.988V13.138a11.985,11.985,0,0,1,11.88-10.9,12.14,12.14,0,0,1,12.02,11.041v.978A11.9,11.9,0,0,1,14.815,26.136Z" fill="#fff" fill-rule="evenodd"/><path d="M23.471,19.124c-.419-.14-2.1-.978-2.376-1.118a.658.658,0,0,0-.839.14,9.792,9.792,0,0,0-1.118,1.4c-.14.28-.419.28-.7.14a9.625,9.625,0,0,1-2.8-1.677,14.532,14.532,0,0,1-1.957-2.376.615.615,0,0,1,.14-.7,1.4,1.4,0,0,1,.559-.7l.14-.14c0-.14.14-.28.14-.419.14-.28,0-.419,0-.559-.14-.28-.839-1.957-1.118-2.656s-.559-.559-.7-.559h-.7a.926.926,0,0,0-.978.28,4.4,4.4,0,0,0-1.258,2.935c0,.419.14.839.14,1.118a7.938,7.938,0,0,0,1.258,2.376,13.43,13.43,0,0,0,6.01,5.311c3.634,1.4,3.634.978,4.193.839A3.212,3.212,0,0,0,23.89,21.08a2.428,2.428,0,0,0,.14-1.677S23.89,19.4,23.471,19.124Z" transform="translate(-2.087 -2.073)" fill="#fff" fill-rule="evenodd"/></g></g></svg>